<svg width="130" height="56" viewBox="0 0 130 56" fill="none" xmlns="http://www.w3.org/2000/svg">
<path d="M129.958 9.49536H119.805V22.7899H129.958V9.49536Z" fill="black"/>
<path d="M129.958 9.49536H119.805V22.7899H129.958V9.49536Z" fill="black" fill-opacity="0.2"/>
<path d="M119.805 32.2875V22.7913H101.53V32.2875H119.805Z" fill="black"/>
<path d="M119.805 32.2875V22.7913H101.53V32.2875H119.805Z" fill="black" fill-opacity="0.2"/>
<path d="M119.805 9.49609H91.3768V0H111.074C115.73 0 119.537 4.19956 119.805 9.49609Z" fill="black"/>
<path d="M119.805 9.49609H91.3768V0H111.074C115.73 0 119.537 4.19956 119.805 9.49609Z" fill="black" fill-opacity="0.2"/>
<path d="M10.153 0H0V45.5814H10.153V0Z" fill="black"/>
<path d="M10.153 0H0V45.5814H10.153V0Z" fill="black" fill-opacity="0.2"/>
<path d="M48.7344 0H38.5814V55.0774H48.7344V0Z" fill="black"/>
<path d="M48.7344 0H38.5814V55.0774H48.7344V0Z" fill="black" fill-opacity="0.2"/>
<path d="M54.8262 0H64.9792V55.0774H58.2568C56.3621 55.0774 54.8262 53.5527 54.8262 51.6719V0Z" fill="black"/>
<path d="M54.8262 0H64.9792V55.0774H58.2568C56.3621 55.0774 54.8262 53.5527 54.8262 51.6719V0Z" fill="black" fill-opacity="0.2"/>
<path d="M81.2238 0H71.0708V55.0774H81.2238V0Z" fill="black"/>
<path d="M81.2238 0H71.0708V55.0774H81.2238V0Z" fill="black" fill-opacity="0.2"/>
<path d="M81.2238 45.5826V55.0786H41.9403C40.0852 55.0786 38.5814 53.5199 38.5814 51.5973V45.5826H81.2238Z" fill="black"/>
<path d="M81.2238 45.5826V55.0786H41.9403C40.0852 55.0786 38.5814 53.5199 38.5814 51.5973V45.5826H81.2238Z" fill="black" fill-opacity="0.2"/>
<path d="M32.4897 55.0786V45.5826H10.1532V55.0786H32.4897Z" fill="black"/>
<path d="M32.4897 55.0786V45.5826H10.1532V55.0786H32.4897Z" fill="black" fill-opacity="0.2"/>
<path d="M129.958 45.5816H119.805V32.287H129.958V45.5816Z" fill="black"/>
<path d="M129.958 45.5816H119.805V32.287H129.958V45.5816Z" fill="black" fill-opacity="0.2"/>
<path d="M119.805 45.5826H91.3768V55.0786H111.074C115.73 55.0786 119.537 50.879 119.805 45.5826Z" fill="black"/>
<path d="M119.805 45.5826H91.3768V55.0786H111.074C115.73 55.0786 119.537 50.879 119.805 45.5826Z" fill="black" fill-opacity="0.2"/>
</svg>
