<svg width="77" height="33" viewBox="0 0 51 22" fill="none" xmlns="http://www.w3.org/2000/svg">
<path d="M51 3.72559H47.0156V8.94181H51V3.72559Z" fill="white"/>
<path d="M47.0156 12.6683V8.94238H39.8438V12.6683H47.0156Z" fill="white"/>
<path d="M47.0156 3.72589H35.8594V0H43.5891C45.4164 0 46.9105 1.64774 47.0156 3.72589Z" fill="white"/>
<path d="M3.98438 0H0V17.8843H3.98438V0Z" fill="white"/>
<path d="M19.125 0H15.1406V21.6102H19.125V0Z" fill="white"/>
<path d="M21.5156 0H25.5V21.6102H22.8619C22.1184 21.6102 21.5156 21.0119 21.5156 20.274V0Z" fill="white"/>
<path d="M31.875 0H27.8906V21.6102H31.875V0Z" fill="white"/>
<path d="M31.875 17.8848V21.6106H16.4588C15.7308 21.6106 15.1406 20.999 15.1406 20.2447V17.8848H31.875Z" fill="white"/>
<path d="M12.75 21.6106V17.8848H3.98438V21.6106H12.75Z" fill="white"/>
<path d="M51 17.8845H47.0156V12.6682H51V17.8845Z" fill="white"/>
<path d="M47.0156 17.8848H35.8594V21.6106H43.5891C45.4164 21.6106 46.9105 19.9629 47.0156 17.8848Z" fill="white"/>
</svg>
