<svg width="682" height="157" viewBox="0 0 682 157" fill="none" xmlns="http://www.w3.org/2000/svg">
<path d="M175.637 61.1599H165.484V74.4544H175.637V61.1599Z" fill="black"/>
<path d="M165.484 83.9521V74.4559H147.209V83.9521H165.484Z" fill="black"/>
<path d="M165.484 61.1606H137.056V51.6646H156.753C161.409 51.6646 165.216 55.8641 165.484 61.1606Z" fill="black"/>
<path d="M55.8322 51.6646H45.6792V97.246H55.8322V51.6646Z" fill="black"/>
<path d="M94.4136 51.6646H84.2606V106.742H94.4136V51.6646Z" fill="black"/>
<path d="M100.505 51.6646H110.658V106.742H103.936C102.041 106.742 100.505 105.217 100.505 103.336V51.6646Z" fill="black"/>
<path d="M126.903 51.6646H116.75V106.742H126.903V51.6646Z" fill="black"/>
<path d="M126.903 97.2471V106.743H87.6195C85.7644 106.743 84.2606 105.184 84.2606 103.262V97.2471H126.903Z" fill="black"/>
<path d="M78.1689 106.743V97.2471H55.8324V106.743H78.1689Z" fill="black"/>
<path d="M175.637 97.2462H165.484V83.9516H175.637V97.2462Z" fill="black"/>
<path d="M165.484 97.2471H137.056V106.743H156.753C161.409 106.743 165.216 102.544 165.484 97.2471Z" fill="black"/>
<path d="M229.538 71.436C228.036 71.436 226.789 71.1817 225.796 70.673C224.803 70.1644 224.064 69.4862 223.58 68.6385C223.095 67.7907 222.853 66.8704 222.853 65.8773C222.853 64.7147 223.144 63.7095 223.725 62.8618C224.33 62.0141 225.214 61.3601 226.377 60.8999C227.54 60.4155 228.969 60.1733 230.664 60.1733H235.278C235.278 59.2045 235.145 58.4052 234.879 57.7755C234.612 57.1215 234.2 56.6371 233.643 56.3222C233.086 56.0073 232.372 55.8499 231.5 55.8499C230.507 55.8499 229.659 56.08 228.957 56.5402C228.254 56.9762 227.818 57.6543 227.649 58.5747H223.362C223.507 57.2668 223.943 56.1527 224.669 55.2323C225.396 54.2877 226.353 53.561 227.54 53.0524C228.751 52.5195 230.071 52.2531 231.5 52.2531C233.219 52.2531 234.685 52.5559 235.896 53.1614C237.107 53.7427 238.027 54.5904 238.657 55.7046C239.311 56.7945 239.638 58.1145 239.638 59.6647V71H235.932L235.496 68.0572C235.254 68.5416 234.939 68.9897 234.552 69.4014C234.188 69.8132 233.764 70.1765 233.28 70.4914C232.796 70.782 232.238 71.0121 231.609 71.1817C231.003 71.3512 230.313 71.436 229.538 71.436ZM230.519 67.9845C231.221 67.9845 231.839 67.8634 232.372 67.6212C232.929 67.3548 233.401 66.9915 233.789 66.5313C234.2 66.0469 234.515 65.514 234.733 64.9327C234.951 64.3514 235.096 63.7338 235.169 63.0798V63.0071H231.136C230.289 63.0071 229.586 63.1161 229.029 63.3341C228.472 63.5279 228.072 63.8185 227.83 64.2061C227.588 64.5936 227.467 65.0417 227.467 65.5503C227.467 66.059 227.588 66.4949 227.83 66.8582C228.072 67.2216 228.424 67.5001 228.884 67.6939C229.344 67.8876 229.889 67.9845 230.519 67.9845ZM252.979 71.436C251.187 71.436 249.576 71.0363 248.147 70.237C246.743 69.4135 245.64 68.2873 244.841 66.8582C244.066 65.405 243.679 63.758 243.679 61.9172C243.679 60.0038 244.066 58.3325 244.841 56.9035C245.64 55.4503 246.743 54.3119 248.147 53.4884C249.576 52.6649 251.199 52.2531 253.016 52.2531C255.292 52.2531 257.206 52.8586 258.756 54.0697C260.306 55.2565 261.299 56.8914 261.735 58.9744H257.157C256.915 58.054 256.407 57.3274 255.632 56.7945C254.881 56.2617 253.985 55.9952 252.943 55.9952C252.047 55.9952 251.223 56.2253 250.473 56.6855C249.746 57.1457 249.165 57.8118 248.729 58.6837C248.317 59.5557 248.111 60.6093 248.111 61.8445C248.111 62.7892 248.232 63.6248 248.474 64.3514C248.717 65.078 249.056 65.6956 249.492 66.2043C249.952 66.6887 250.473 67.0641 251.054 67.3306C251.635 67.597 252.265 67.7302 252.943 67.7302C253.645 67.7302 254.275 67.6212 254.832 67.4032C255.414 67.161 255.898 66.8098 256.286 66.3496C256.697 65.8894 256.988 65.3444 257.157 64.7147H261.735C261.299 66.7493 260.306 68.3842 258.756 69.6194C257.206 70.8305 255.28 71.436 252.979 71.436ZM274.622 71.436C272.83 71.436 271.219 71.0363 269.79 70.237C268.385 69.4135 267.283 68.2873 266.484 66.8582C265.709 65.405 265.321 63.758 265.321 61.9172C265.321 60.0038 265.709 58.3325 266.484 56.9035C267.283 55.4503 268.385 54.3119 269.79 53.4884C271.219 52.6649 272.842 52.2531 274.658 52.2531C276.935 52.2531 278.848 52.8586 280.399 54.0697C281.949 55.2565 282.942 56.8914 283.378 58.9744H278.8C278.558 58.054 278.049 57.3274 277.274 56.7945C276.523 56.2617 275.627 55.9952 274.586 55.9952C273.689 55.9952 272.866 56.2253 272.115 56.6855C271.388 57.1457 270.807 57.8118 270.371 58.6837C269.959 59.5557 269.754 60.6093 269.754 61.8445C269.754 62.7892 269.875 63.6248 270.117 64.3514C270.359 65.078 270.698 65.6956 271.134 66.2043C271.594 66.6887 272.115 67.0641 272.696 67.3306C273.278 67.597 273.907 67.7302 274.586 67.7302C275.288 67.7302 275.918 67.6212 276.475 67.4032C277.056 67.161 277.541 66.8098 277.928 66.3496C278.34 65.8894 278.631 65.3444 278.8 64.7147H283.378C282.942 66.7493 281.949 68.3842 280.399 69.6194C278.848 70.8305 276.923 71.436 274.622 71.436ZM296.156 71.436C294.339 71.436 292.74 71.0484 291.36 70.2734C289.979 69.4741 288.901 68.3599 288.126 66.9309C287.351 65.5019 286.964 63.8549 286.964 61.9899C286.964 60.0522 287.339 58.3568 288.09 56.9035C288.865 55.4503 289.943 54.3119 291.324 53.4884C292.728 52.6649 294.351 52.2531 296.192 52.2531C297.984 52.2531 299.546 52.6528 300.879 53.452C302.211 54.2513 303.24 55.3292 303.967 56.6855C304.693 58.0177 305.057 59.5194 305.057 61.1906C305.057 61.4328 305.057 61.6992 305.057 61.9899C305.057 62.2805 305.032 62.5833 304.984 62.8981H290.088V60.1006H300.661C300.612 58.7685 300.164 57.727 299.316 56.9762C298.469 56.2011 297.415 55.8136 296.156 55.8136C295.259 55.8136 294.436 56.0194 293.685 56.4312C292.934 56.843 292.341 57.4606 291.905 58.2841C291.469 59.0834 291.251 60.1006 291.251 61.3359V62.3895C291.251 63.5279 291.457 64.5088 291.868 65.3323C292.304 66.1558 292.886 66.7856 293.612 67.2216C294.363 67.6333 295.199 67.8392 296.119 67.8392C297.137 67.8392 297.972 67.6212 298.626 67.1852C299.304 66.7493 299.801 66.168 300.116 65.4413H304.548C304.209 66.5797 303.652 67.6091 302.877 68.5295C302.102 69.4256 301.145 70.1402 300.007 70.673C298.868 71.1817 297.585 71.436 296.156 71.436ZM309.082 71V44.8416H313.442V71H309.082ZM326.881 71.436C325.064 71.436 323.466 71.0484 322.085 70.2734C320.705 69.4741 319.627 68.3599 318.852 66.9309C318.077 65.5019 317.689 63.8549 317.689 61.9899C317.689 60.0522 318.065 58.3568 318.815 56.9035C319.59 55.4503 320.668 54.3119 322.049 53.4884C323.454 52.6649 325.077 52.2531 326.917 52.2531C328.71 52.2531 330.272 52.6528 331.604 53.452C332.936 54.2513 333.966 55.3292 334.692 56.6855C335.419 58.0177 335.782 59.5194 335.782 61.1906C335.782 61.4328 335.782 61.6992 335.782 61.9899C335.782 62.2805 335.758 62.5833 335.709 62.8981H320.814V60.1006H331.386C331.338 58.7685 330.889 57.727 330.042 56.9762C329.194 56.2011 328.14 55.8136 326.881 55.8136C325.985 55.8136 325.161 56.0194 324.41 56.4312C323.66 56.843 323.066 57.4606 322.63 58.2841C322.194 59.0834 321.976 60.1006 321.976 61.3359V62.3895C321.976 63.5279 322.182 64.5088 322.594 65.3323C323.03 66.1558 323.611 66.7856 324.338 67.2216C325.089 67.6333 325.924 67.8392 326.845 67.8392C327.862 67.8392 328.698 67.6212 329.351 67.1852C330.03 66.7493 330.526 66.168 330.841 65.4413H335.273C334.934 66.5797 334.377 67.6091 333.602 68.5295C332.827 69.4256 331.87 70.1402 330.732 70.673C329.594 71.1817 328.31 71.436 326.881 71.436ZM339.807 71V52.6891H343.695L344.095 56.1042C344.531 55.3049 345.075 54.6268 345.729 54.0697C346.383 53.4884 347.146 53.0403 348.018 52.7254C348.914 52.4106 349.895 52.2531 350.961 52.2531V56.8672H349.435C348.709 56.8672 348.018 56.9641 347.364 57.1578C346.71 57.3274 346.141 57.618 345.657 58.0298C345.197 58.4173 344.833 58.9623 344.567 59.6647C344.3 60.3429 344.167 61.2027 344.167 62.2442V71H339.807ZM360.351 71.436C358.85 71.436 357.602 71.1817 356.609 70.673C355.616 70.1644 354.877 69.4862 354.393 68.6385C353.909 67.7907 353.666 66.8704 353.666 65.8773C353.666 64.7147 353.957 63.7095 354.538 62.8618C355.144 62.0141 356.028 61.3601 357.191 60.8999C358.353 60.4155 359.782 60.1733 361.478 60.1733H366.092C366.092 59.2045 365.958 58.4052 365.692 57.7755C365.426 57.1215 365.014 56.6371 364.457 56.3222C363.9 56.0073 363.185 55.8499 362.313 55.8499C361.32 55.8499 360.472 56.08 359.77 56.5402C359.068 56.9762 358.632 57.6543 358.462 58.5747H354.175C354.32 57.2668 354.756 56.1527 355.483 55.2323C356.21 54.2877 357.166 53.561 358.353 53.0524C359.564 52.5195 360.884 52.2531 362.313 52.2531C364.033 52.2531 365.498 52.5559 366.709 53.1614C367.92 53.7427 368.841 54.5904 369.47 55.7046C370.124 56.7945 370.451 58.1145 370.451 59.6647V71H366.746L366.31 68.0572C366.067 68.5416 365.753 68.9897 365.365 69.4014C365.002 69.8132 364.578 70.1765 364.093 70.4914C363.609 70.782 363.052 71.0121 362.422 71.1817C361.817 71.3512 361.126 71.436 360.351 71.436ZM361.332 67.9845C362.035 67.9845 362.652 67.8634 363.185 67.6212C363.742 67.3548 364.215 66.9915 364.602 66.5313C365.014 66.0469 365.329 65.514 365.547 64.9327C365.765 64.3514 365.91 63.7338 365.983 63.0798V63.0071H361.95C361.102 63.0071 360.4 63.1161 359.843 63.3341C359.286 63.5279 358.886 63.8185 358.644 64.2061C358.402 64.5936 358.28 65.0417 358.28 65.5503C358.28 66.059 358.402 66.4949 358.644 66.8582C358.886 67.2216 359.237 67.5001 359.697 67.6939C360.158 67.8876 360.703 67.9845 361.332 67.9845ZM382.782 71C381.547 71 380.469 70.8062 379.549 70.4187C378.653 70.0312 377.95 69.3893 377.442 68.4931C376.933 67.597 376.679 66.3859 376.679 64.86V56.3585H373.554V52.6891H376.679L377.187 47.857H381.039V52.6891H386.016V56.3585H381.039V64.86C381.039 65.7804 381.232 66.4223 381.62 66.7856C382.032 67.1247 382.71 67.2942 383.654 67.2942H385.907V71H382.782ZM390.299 71V52.6891H394.659V71H390.299ZM392.479 49.7826C391.68 49.7826 391.014 49.5404 390.481 49.056C389.972 48.5473 389.718 47.9297 389.718 47.2031C389.718 46.4522 389.972 45.8467 390.481 45.3865C391.014 44.9021 391.68 44.6599 392.479 44.6599C393.278 44.6599 393.932 44.9021 394.441 45.3865C394.974 45.8467 395.24 46.4522 395.24 47.2031C395.24 47.9297 394.974 48.5473 394.441 49.056C393.932 49.5404 393.278 49.7826 392.479 49.7826ZM399.697 71V52.6891H403.548L403.875 55.7409C404.432 54.6752 405.232 53.8275 406.273 53.1977C407.315 52.568 408.55 52.2531 409.979 52.2531C411.456 52.2531 412.716 52.568 413.757 53.1977C414.799 53.8032 415.598 54.6994 416.155 55.8862C416.736 57.0731 417.027 58.5505 417.027 60.3186V71H412.667V60.7183C412.667 59.1924 412.328 58.0177 411.65 57.1942C410.972 56.3706 409.967 55.9589 408.635 55.9589C407.763 55.9589 406.975 56.1648 406.273 56.5765C405.595 56.9883 405.05 57.5938 404.638 58.3931C404.251 59.1681 404.057 60.1128 404.057 61.2269V71H399.697ZM429.326 79.4288C427.606 79.4288 426.092 79.2108 424.784 78.7749C423.501 78.3631 422.495 77.7213 421.769 76.8493C421.066 76.0016 420.715 74.9359 420.715 73.6522C420.715 72.9013 420.897 72.1626 421.26 71.436C421.648 70.7336 422.217 70.0796 422.968 69.4741C423.743 68.8444 424.724 68.2994 425.911 67.8392L427.836 69.9464C426.674 70.3581 425.862 70.8547 425.402 71.436C424.942 72.0173 424.712 72.6107 424.712 73.2162C424.712 73.8459 424.905 74.3667 425.293 74.7784C425.705 75.2144 426.25 75.5414 426.928 75.7594C427.63 75.9774 428.417 76.0864 429.289 76.0864C430.137 76.0864 430.876 75.9653 431.506 75.7231C432.135 75.5051 432.62 75.1902 432.959 74.7784C433.322 74.3667 433.504 73.8702 433.504 73.2889C433.504 72.5622 433.25 71.9688 432.741 71.5086C432.232 71.0727 431.227 70.8062 429.725 70.7094C428.442 70.6125 427.315 70.4793 426.347 70.3097C425.378 70.1159 424.542 69.898 423.84 69.6557C423.162 69.4135 422.58 69.1471 422.096 68.8565C421.611 68.5416 421.212 68.2267 420.897 67.9119V67.0762L424.712 63.0798L427.945 64.1334L423.658 68.3115L424.784 66.2043C425.027 66.3738 425.269 66.5313 425.511 66.6766C425.777 66.8219 426.104 66.9551 426.492 67.0762C426.904 67.1731 427.437 67.27 428.09 67.3669C428.744 67.4638 429.592 67.5606 430.634 67.6575C432.256 67.7786 433.577 68.0693 434.594 68.5295C435.611 68.9897 436.362 69.6073 436.846 70.3824C437.331 71.1574 437.573 72.0899 437.573 73.1799C437.573 74.2456 437.27 75.2507 436.665 76.1954C436.083 77.14 435.187 77.915 433.976 78.5206C432.765 79.1261 431.215 79.4288 429.326 79.4288ZM429.326 65.514C427.8 65.514 426.48 65.2233 425.366 64.642C424.276 64.0365 423.44 63.2372 422.859 62.2442C422.278 61.2269 421.987 60.1128 421.987 58.9017C421.987 57.6665 422.278 56.5523 422.859 55.5593C423.44 54.5662 424.276 53.7669 425.366 53.1614C426.48 52.5559 427.8 52.2531 429.326 52.2531C430.852 52.2531 432.16 52.5559 433.25 53.1614C434.339 53.7669 435.175 54.5662 435.756 55.5593C436.338 56.5523 436.628 57.6665 436.628 58.9017C436.628 60.1128 436.338 61.2269 435.756 62.2442C435.175 63.2372 434.339 64.0365 433.25 64.642C432.16 65.2233 430.852 65.514 429.326 65.514ZM429.326 62.1352C430.367 62.1352 431.203 61.8567 431.833 61.2996C432.462 60.7425 432.777 59.9432 432.777 58.9017C432.777 57.8602 432.462 57.0731 431.833 56.5402C431.203 55.9831 430.367 55.7046 429.326 55.7046C428.284 55.7046 427.437 55.9831 426.783 56.5402C426.129 57.0731 425.802 57.8602 425.802 58.9017C425.802 59.9432 426.129 60.7425 426.783 61.2996C427.437 61.8567 428.284 62.1352 429.326 62.1352ZM432.341 55.8862L431.506 52.6891H439.026V55.4139L432.341 55.8862Z" fill="black"/>
<path d="M230.737 106.694C229.114 106.694 227.697 106.439 226.486 105.931C225.299 105.398 224.355 104.671 223.652 103.751C222.974 102.806 222.574 101.728 222.453 100.517H226.813C226.934 101.026 227.152 101.498 227.467 101.934C227.782 102.346 228.206 102.673 228.739 102.915C229.296 103.157 229.95 103.278 230.7 103.278C231.427 103.278 232.02 103.182 232.481 102.988C232.941 102.77 233.28 102.491 233.498 102.152C233.716 101.813 233.825 101.45 233.825 101.062C233.825 100.481 233.667 100.033 233.353 99.718C233.038 99.4031 232.578 99.1609 231.972 98.9913C231.391 98.7976 230.688 98.6159 229.865 98.4464C228.993 98.2768 228.145 98.0709 227.322 97.8287C226.522 97.5623 225.796 97.2353 225.142 96.8478C224.512 96.4603 224.003 95.9637 223.616 95.3582C223.253 94.7527 223.071 94.014 223.071 93.142C223.071 92.0763 223.349 91.1196 223.906 90.2719C224.488 89.4241 225.311 88.7581 226.377 88.2736C227.467 87.765 228.763 87.5107 230.264 87.5107C232.396 87.5107 234.091 88.0072 235.351 89.0003C236.635 89.9691 237.385 91.3376 237.603 93.1057H233.462C233.34 92.4275 233.001 91.9068 232.444 91.5434C231.887 91.1559 231.149 90.9621 230.228 90.9621C229.284 90.9621 228.557 91.1438 228.048 91.5071C227.564 91.8462 227.322 92.3064 227.322 92.8877C227.322 93.251 227.467 93.5901 227.758 93.905C228.072 94.1956 228.521 94.4499 229.102 94.6679C229.683 94.8617 230.398 95.0555 231.245 95.2492C232.602 95.5157 233.801 95.8305 234.842 96.1938C235.884 96.5571 236.707 97.09 237.313 97.7924C237.918 98.4948 238.221 99.4879 238.221 100.772C238.245 101.934 237.942 102.964 237.313 103.86C236.707 104.756 235.847 105.458 234.733 105.967C233.619 106.451 232.287 106.694 230.737 106.694ZM249.245 106.694C247.768 106.694 246.496 106.403 245.43 105.822C244.389 105.216 243.59 104.32 243.033 103.133C242.476 101.922 242.197 100.432 242.197 98.6644V87.9467H246.557V98.2284C246.557 99.8027 246.884 101.002 247.538 101.825C248.216 102.624 249.233 103.024 250.589 103.024C251.461 103.024 252.236 102.818 252.915 102.406C253.617 101.995 254.162 101.401 254.55 100.626C254.961 99.827 255.167 98.8581 255.167 97.7197V87.9467H259.527V106.258H255.676L255.349 103.206C254.792 104.271 253.98 105.119 252.915 105.749C251.873 106.379 250.65 106.694 249.245 106.694ZM271.68 106.694C270.057 106.694 268.641 106.439 267.43 105.931C266.243 105.398 265.298 104.671 264.596 103.751C263.918 102.806 263.518 101.728 263.397 100.517H267.757C267.878 101.026 268.096 101.498 268.41 101.934C268.725 102.346 269.149 102.673 269.682 102.915C270.239 103.157 270.893 103.278 271.644 103.278C272.371 103.278 272.964 103.182 273.424 102.988C273.884 102.77 274.223 102.491 274.441 102.152C274.659 101.813 274.768 101.45 274.768 101.062C274.768 100.481 274.611 100.033 274.296 99.718C273.981 99.4031 273.521 99.1609 272.916 98.9913C272.334 98.7976 271.632 98.6159 270.808 98.4464C269.936 98.2768 269.089 98.0709 268.265 97.8287C267.466 97.5623 266.739 97.2353 266.085 96.8478C265.456 96.4603 264.947 95.9637 264.559 95.3582C264.196 94.7527 264.014 94.014 264.014 93.142C264.014 92.0763 264.293 91.1196 264.85 90.2719C265.431 89.4241 266.255 88.7581 267.321 88.2736C268.41 87.765 269.706 87.5107 271.208 87.5107C273.339 87.5107 275.035 88.0072 276.294 89.0003C277.578 89.9691 278.329 91.3376 278.547 93.1057H274.405C274.284 92.4275 273.945 91.9068 273.388 91.5434C272.831 91.1559 272.092 90.9621 271.172 90.9621C270.227 90.9621 269.5 91.1438 268.992 91.5071C268.507 91.8462 268.265 92.3064 268.265 92.8877C268.265 93.251 268.41 93.5901 268.701 93.905C269.016 94.1956 269.464 94.4499 270.045 94.6679C270.627 94.8617 271.341 95.0555 272.189 95.2492C273.545 95.5157 274.744 95.8305 275.786 96.1938C276.827 96.5571 277.651 97.09 278.256 97.7924C278.862 98.4948 279.164 99.4879 279.164 100.772C279.189 101.934 278.886 102.964 278.256 103.86C277.651 104.756 276.791 105.458 275.677 105.967C274.563 106.451 273.23 106.694 271.68 106.694ZM290.713 106.258C289.477 106.258 288.4 106.064 287.479 105.676C286.583 105.289 285.881 104.647 285.372 103.751C284.863 102.855 284.609 101.644 284.609 100.118V91.6161H281.485V87.9467H284.609L285.118 83.1146H288.969V87.9467H293.946V91.6161H288.969V100.118C288.969 101.038 289.163 101.68 289.55 102.043C289.962 102.382 290.64 102.552 291.585 102.552H293.837V106.258H290.713ZM304.152 106.694C302.65 106.694 301.402 106.439 300.409 105.931C299.416 105.422 298.678 104.744 298.193 103.896C297.709 103.048 297.467 102.128 297.467 101.135C297.467 99.9723 297.757 98.9671 298.339 98.1194C298.944 97.2717 299.828 96.6177 300.991 96.1575C302.153 95.6731 303.582 95.4309 305.278 95.4309H309.892C309.892 94.462 309.759 93.6628 309.492 93.033C309.226 92.3791 308.814 91.8946 308.257 91.5798C307.7 91.2649 306.985 91.1075 306.113 91.1075C305.12 91.1075 304.273 91.3376 303.57 91.7978C302.868 92.2337 302.432 92.9119 302.262 93.8323H297.975C298.121 92.5244 298.557 91.4102 299.283 90.4898C300.01 89.5452 300.967 88.8186 302.153 88.31C303.364 87.7771 304.684 87.5107 306.113 87.5107C307.833 87.5107 309.298 87.8134 310.509 88.419C311.721 89.0003 312.641 89.848 313.271 90.9621C313.925 92.0521 314.252 93.3721 314.252 94.9222V106.258H310.546L310.11 103.315C309.868 103.799 309.553 104.247 309.165 104.659C308.802 105.071 308.378 105.434 307.894 105.749C307.409 106.04 306.852 106.27 306.222 106.439C305.617 106.609 304.927 106.694 304.152 106.694ZM305.132 103.242C305.835 103.242 306.453 103.121 306.985 102.879C307.542 102.612 308.015 102.249 308.402 101.789C308.814 101.304 309.129 100.772 309.347 100.19C309.565 99.609 309.71 98.9913 309.783 98.3374V98.2647H305.75C304.902 98.2647 304.2 98.3737 303.643 98.5917C303.086 98.7855 302.686 99.0761 302.444 99.4636C302.202 99.8512 302.081 100.299 302.081 100.808C302.081 101.317 302.202 101.753 302.444 102.116C302.686 102.479 303.037 102.758 303.498 102.951C303.958 103.145 304.503 103.242 305.132 103.242ZM319.092 106.258V87.9467H323.451V106.258H319.092ZM321.271 85.0402C320.472 85.0402 319.806 84.798 319.273 84.3135C318.765 83.8049 318.51 83.1873 318.51 82.4607C318.51 81.7098 318.765 81.1043 319.273 80.6441C319.806 80.1597 320.472 79.9175 321.271 79.9175C322.071 79.9175 322.725 80.1597 323.233 80.6441C323.766 81.1043 324.033 81.7098 324.033 82.4607C324.033 83.1873 323.766 83.8049 323.233 84.3135C322.725 84.798 322.071 85.0402 321.271 85.0402ZM328.489 106.258V87.9467H332.341L332.668 90.9985C333.225 89.9328 334.024 89.085 335.065 88.4553C336.107 87.8256 337.342 87.5107 338.771 87.5107C340.249 87.5107 341.508 87.8256 342.55 88.4553C343.591 89.0608 344.39 89.957 344.947 91.1438C345.529 92.3306 345.819 93.8081 345.819 95.5762V106.258H341.46V95.9758C341.46 94.4499 341.121 93.2752 340.442 92.4517C339.764 91.6282 338.759 91.2165 337.427 91.2165C336.555 91.2165 335.768 91.4223 335.065 91.8341C334.387 92.2458 333.842 92.8514 333.43 93.6507C333.043 94.4257 332.849 95.3703 332.849 96.4845V106.258H328.489ZM356.52 106.694C355.018 106.694 353.77 106.439 352.777 105.931C351.784 105.422 351.046 104.744 350.561 103.896C350.077 103.048 349.835 102.128 349.835 101.135C349.835 99.9723 350.125 98.9671 350.707 98.1194C351.312 97.2717 352.196 96.6177 353.359 96.1575C354.521 95.6731 355.95 95.4309 357.646 95.4309H362.26C362.26 94.462 362.127 93.6628 361.86 93.033C361.594 92.3791 361.182 91.8946 360.625 91.5798C360.068 91.2649 359.353 91.1075 358.481 91.1075C357.488 91.1075 356.641 91.3376 355.938 91.7978C355.236 92.2337 354.8 92.9119 354.63 93.8323H350.343C350.489 92.5244 350.925 91.4102 351.651 90.4898C352.378 89.5452 353.334 88.8186 354.521 88.31C355.732 87.7771 357.052 87.5107 358.481 87.5107C360.201 87.5107 361.666 87.8134 362.877 88.419C364.089 89.0003 365.009 89.848 365.639 90.9621C366.293 92.0521 366.62 93.3721 366.62 94.9222V106.258H362.914L362.478 103.315C362.236 103.799 361.921 104.247 361.533 104.659C361.17 105.071 360.746 105.434 360.262 105.749C359.777 106.04 359.22 106.27 358.59 106.439C357.985 106.609 357.295 106.694 356.52 106.694ZM357.5 103.242C358.203 103.242 358.82 103.121 359.353 102.879C359.91 102.612 360.383 102.249 360.77 101.789C361.182 101.304 361.497 100.772 361.715 100.19C361.933 99.609 362.078 98.9913 362.151 98.3374V98.2647H358.118C357.27 98.2647 356.568 98.3737 356.011 98.5917C355.454 98.7855 355.054 99.0761 354.812 99.4636C354.57 99.8512 354.449 100.299 354.449 100.808C354.449 101.317 354.57 101.753 354.812 102.116C355.054 102.479 355.405 102.758 355.866 102.951C356.326 103.145 356.871 103.242 357.5 103.242ZM381.741 106.694C380.772 106.694 379.901 106.56 379.125 106.294C378.35 106.052 377.672 105.713 377.091 105.277C376.51 104.816 376.025 104.296 375.638 103.714L375.165 106.258H371.278V80.0991H375.638V90.6352C376.219 89.739 377.006 89.0003 377.999 88.419C378.992 87.8134 380.228 87.5107 381.705 87.5107C383.425 87.5107 384.938 87.9345 386.246 88.7823C387.579 89.6058 388.62 90.7442 389.371 92.1974C390.146 93.6264 390.533 95.2734 390.533 97.1384C390.533 98.955 390.158 100.59 389.407 102.043C388.656 103.496 387.615 104.635 386.283 105.458C384.975 106.282 383.461 106.694 381.741 106.694ZM380.833 102.915C381.85 102.915 382.759 102.673 383.558 102.188C384.357 101.68 384.975 101.002 385.411 100.154C385.871 99.282 386.101 98.2647 386.101 97.1021C386.101 95.9637 385.871 94.9586 385.411 94.0866C384.975 93.2147 384.357 92.5365 383.558 92.0521C382.759 91.5677 381.85 91.3255 380.833 91.3255C379.792 91.3255 378.871 91.5677 378.072 92.0521C377.297 92.5365 376.679 93.2147 376.219 94.0866C375.783 94.9586 375.565 95.9637 375.565 97.1021C375.565 98.2647 375.783 99.282 376.219 100.154C376.679 101.002 377.297 101.68 378.072 102.188C378.871 102.673 379.792 102.915 380.833 102.915ZM394.765 106.258V80.0991H399.125V106.258H394.765ZM412.564 106.694C410.748 106.694 409.149 106.306 407.769 105.531C406.388 104.732 405.31 103.618 404.535 102.188C403.76 100.759 403.373 99.1124 403.373 97.2474C403.373 95.3098 403.748 93.6143 404.499 92.1611C405.274 90.7078 406.352 89.5695 407.732 88.7459C409.137 87.9224 410.76 87.5107 412.601 87.5107C414.393 87.5107 415.955 87.9103 417.287 88.7096C418.62 89.5089 419.649 90.5867 420.376 91.9431C421.102 93.2752 421.465 94.7769 421.465 96.4482C421.465 96.6904 421.465 96.9568 421.465 97.2474C421.465 97.5381 421.441 97.8408 421.393 98.1557H406.497V95.3582H417.069C417.021 94.0261 416.573 92.9846 415.725 92.2337C414.877 91.4587 413.824 91.0711 412.564 91.0711C411.668 91.0711 410.845 91.277 410.094 91.6888C409.343 92.1005 408.75 92.7182 408.314 93.5417C407.878 94.3409 407.66 95.3582 407.66 96.5935V97.6471C407.66 98.7855 407.865 99.7664 408.277 100.59C408.713 101.413 409.295 102.043 410.021 102.479C410.772 102.891 411.608 103.097 412.528 103.097C413.545 103.097 414.381 102.879 415.035 102.443C415.713 102.007 416.21 101.426 416.524 100.699H420.957C420.618 101.837 420.061 102.867 419.286 103.787C418.511 104.683 417.554 105.398 416.415 105.931C415.277 106.439 413.993 106.694 412.564 106.694ZM442.317 106.258C441.082 106.258 440.004 106.064 439.084 105.676C438.188 105.289 437.485 104.647 436.977 103.751C436.468 102.855 436.214 101.644 436.214 100.118V91.6161H433.089V87.9467H436.214L436.722 83.1146H440.573V87.9467H445.551V91.6161H440.573V100.118C440.573 101.038 440.767 101.68 441.155 102.043C441.566 102.382 442.245 102.552 443.189 102.552H445.442V106.258H442.317ZM449.652 106.258V87.9467H453.54L453.94 91.3618C454.376 90.5625 454.921 89.8843 455.574 89.3272C456.228 88.7459 456.991 88.2979 457.863 87.983C458.759 87.6681 459.74 87.5107 460.806 87.5107V92.1247H459.28C458.554 92.1247 457.863 92.2216 457.209 92.4154C456.555 92.5849 455.986 92.8756 455.502 93.2873C455.042 93.6749 454.678 94.2198 454.412 94.9222C454.145 95.6004 454.012 96.4603 454.012 97.5018V106.258H449.652ZM470.196 106.694C468.695 106.694 467.447 106.439 466.454 105.931C465.461 105.422 464.722 104.744 464.238 103.896C463.754 103.048 463.511 102.128 463.511 101.135C463.511 99.9723 463.802 98.9671 464.383 98.1194C464.989 97.2717 465.873 96.6177 467.036 96.1575C468.198 95.6731 469.627 95.4309 471.323 95.4309H475.937C475.937 94.462 475.803 93.6628 475.537 93.033C475.271 92.3791 474.859 91.8946 474.302 91.5798C473.745 91.2649 473.03 91.1075 472.158 91.1075C471.165 91.1075 470.317 91.3376 469.615 91.7978C468.913 92.2337 468.477 92.9119 468.307 93.8323H464.02C464.165 92.5244 464.601 91.4102 465.328 90.4898C466.055 89.5452 467.011 88.8186 468.198 88.31C469.409 87.7771 470.729 87.5107 472.158 87.5107C473.878 87.5107 475.343 87.8134 476.554 88.419C477.765 89.0003 478.686 89.848 479.315 90.9621C479.969 92.0521 480.296 93.3721 480.296 94.9222V106.258H476.591L476.155 103.315C475.912 103.799 475.598 104.247 475.21 104.659C474.847 105.071 474.423 105.434 473.938 105.749C473.454 106.04 472.897 106.27 472.267 106.439C471.662 106.609 470.971 106.694 470.196 106.694ZM471.177 103.242C471.88 103.242 472.497 103.121 473.03 102.879C473.587 102.612 474.06 102.249 474.447 101.789C474.859 101.304 475.174 100.772 475.392 100.19C475.61 99.609 475.755 98.9913 475.828 98.3374V98.2647H471.795C470.947 98.2647 470.245 98.3737 469.688 98.5917C469.131 98.7855 468.731 99.0761 468.489 99.4636C468.247 99.8512 468.125 100.299 468.125 100.808C468.125 101.317 468.247 101.753 468.489 102.116C468.731 102.479 469.082 102.758 469.542 102.951C470.003 103.145 470.548 103.242 471.177 103.242ZM493.638 106.694C491.846 106.694 490.235 106.294 488.806 105.495C487.401 104.671 486.299 103.545 485.5 102.116C484.725 100.663 484.337 99.0156 484.337 97.1748C484.337 95.2613 484.725 93.5901 485.5 92.1611C486.299 90.7078 487.401 89.5695 488.806 88.7459C490.235 87.9224 491.858 87.5107 493.674 87.5107C495.951 87.5107 497.864 88.1162 499.415 89.3272C500.965 90.5141 501.958 92.149 502.394 94.232H497.816C497.574 93.3116 497.065 92.5849 496.29 92.0521C495.539 91.5192 494.643 91.2528 493.602 91.2528C492.705 91.2528 491.882 91.4829 491.131 91.9431C490.404 92.4033 489.823 93.0694 489.387 93.9413C488.975 94.8132 488.769 95.8669 488.769 97.1021C488.769 98.0467 488.891 98.8823 489.133 99.609C489.375 100.336 489.714 100.953 490.15 101.462C490.61 101.946 491.131 102.322 491.712 102.588C492.294 102.855 492.923 102.988 493.602 102.988C494.304 102.988 494.934 102.879 495.491 102.661C496.072 102.419 496.556 102.067 496.944 101.607C497.356 101.147 497.646 100.602 497.816 99.9723H502.394C501.958 102.007 500.965 103.642 499.415 104.877C497.864 106.088 495.939 106.694 493.638 106.694ZM515.171 106.694C513.355 106.694 511.756 106.306 510.376 105.531C508.995 104.732 507.917 103.618 507.142 102.188C506.367 100.759 505.98 99.1124 505.98 97.2474C505.98 95.3098 506.355 93.6143 507.106 92.1611C507.881 90.7078 508.959 89.5695 510.339 88.7459C511.744 87.9224 513.367 87.5107 515.208 87.5107C517 87.5107 518.562 87.9103 519.895 88.7096C521.227 89.5089 522.256 90.5867 522.983 91.9431C523.709 93.2752 524.073 94.7769 524.073 96.4482C524.073 96.6904 524.073 96.9568 524.073 97.2474C524.073 97.5381 524.048 97.8408 524 98.1557H509.104V95.3582H519.677C519.628 94.0261 519.18 92.9846 518.332 92.2337C517.485 91.4587 516.431 91.0711 515.171 91.0711C514.275 91.0711 513.452 91.277 512.701 91.6888C511.95 92.1005 511.357 92.7182 510.921 93.5417C510.485 94.3409 510.267 95.3582 510.267 96.5935V97.6471C510.267 98.7855 510.473 99.7664 510.884 100.59C511.32 101.413 511.902 102.043 512.628 102.479C513.379 102.891 514.215 103.097 515.135 103.097C516.152 103.097 516.988 102.879 517.642 102.443C518.32 102.007 518.817 101.426 519.132 100.699H523.564C523.225 101.837 522.668 102.867 521.893 103.787C521.118 104.683 520.161 105.398 519.023 105.931C517.884 106.439 516.601 106.694 515.171 106.694ZM534.202 106.694C532.7 106.694 531.453 106.439 530.46 105.931C529.466 105.422 528.728 104.744 528.243 103.896C527.759 103.048 527.517 102.128 527.517 101.135C527.517 99.9723 527.807 98.9671 528.389 98.1194C528.994 97.2717 529.878 96.6177 531.041 96.1575C532.203 95.6731 533.632 95.4309 535.328 95.4309H539.942C539.942 94.462 539.809 93.6628 539.542 93.033C539.276 92.3791 538.864 91.8946 538.307 91.5798C537.75 91.2649 537.035 91.1075 536.164 91.1075C535.17 91.1075 534.323 91.3376 533.62 91.7978C532.918 92.2337 532.482 92.9119 532.312 93.8323H528.025C528.171 92.5244 528.607 91.4102 529.333 90.4898C530.06 89.5452 531.017 88.8186 532.203 88.31C533.414 87.7771 534.735 87.5107 536.164 87.5107C537.883 87.5107 539.349 87.8134 540.56 88.419C541.771 89.0003 542.691 89.848 543.321 90.9621C543.975 92.0521 544.302 93.3721 544.302 94.9222V106.258H540.596L540.16 103.315C539.918 103.799 539.603 104.247 539.215 104.659C538.852 105.071 538.428 105.434 537.944 105.749C537.459 106.04 536.902 106.27 536.273 106.439C535.667 106.609 534.977 106.694 534.202 106.694ZM535.183 103.242C535.885 103.242 536.503 103.121 537.035 102.879C537.593 102.612 538.065 102.249 538.452 101.789C538.864 101.304 539.179 100.772 539.397 100.19C539.615 99.609 539.76 98.9913 539.833 98.3374V98.2647H535.8C534.952 98.2647 534.25 98.3737 533.693 98.5917C533.136 98.7855 532.736 99.0761 532.494 99.4636C532.252 99.8512 532.131 100.299 532.131 100.808C532.131 101.317 532.252 101.753 532.494 102.116C532.736 102.479 533.087 102.758 533.548 102.951C534.008 103.145 534.553 103.242 535.183 103.242ZM559.423 106.694C558.455 106.694 557.583 106.56 556.808 106.294C556.033 106.052 555.354 105.713 554.773 105.277C554.192 104.816 553.707 104.296 553.32 103.714L552.847 106.258H548.96V80.0991H553.32V90.6352C553.901 89.739 554.688 89.0003 555.681 88.419C556.674 87.8134 557.91 87.5107 559.387 87.5107C561.107 87.5107 562.621 87.9345 563.928 88.7823C565.261 89.6058 566.302 90.7442 567.053 92.1974C567.828 93.6264 568.216 95.2734 568.216 97.1384C568.216 98.955 567.84 100.59 567.089 102.043C566.338 103.496 565.297 104.635 563.965 105.458C562.657 106.282 561.143 106.694 559.423 106.694ZM558.515 102.915C559.532 102.915 560.441 102.673 561.24 102.188C562.039 101.68 562.657 101.002 563.093 100.154C563.553 99.282 563.783 98.2647 563.783 97.1021C563.783 95.9637 563.553 94.9586 563.093 94.0866C562.657 93.2147 562.039 92.5365 561.24 92.0521C560.441 91.5677 559.532 91.3255 558.515 91.3255C557.474 91.3255 556.553 91.5677 555.754 92.0521C554.979 92.5365 554.361 93.2147 553.901 94.0866C553.465 94.9586 553.247 95.9637 553.247 97.1021C553.247 98.2647 553.465 99.282 553.901 100.154C554.361 101.002 554.979 101.68 555.754 102.188C556.553 102.673 557.474 102.915 558.515 102.915ZM572.629 106.258V87.9467H576.989V106.258H572.629ZM574.809 85.0402C574.01 85.0402 573.344 84.798 572.811 84.3135C572.302 83.8049 572.048 83.1873 572.048 82.4607C572.048 81.7098 572.302 81.1043 572.811 80.6441C573.344 80.1597 574.01 79.9175 574.809 79.9175C575.608 79.9175 576.262 80.1597 576.771 80.6441C577.304 81.1043 577.57 81.7098 577.57 82.4607C577.57 83.1873 577.304 83.8049 576.771 84.3135C576.262 84.798 575.608 85.0402 574.809 85.0402ZM582.027 106.258V80.0991H586.387V106.258H582.027ZM591.433 106.258V87.9467H595.793V106.258H591.433ZM593.613 85.0402C592.814 85.0402 592.148 84.798 591.615 84.3135C591.106 83.8049 590.852 83.1873 590.852 82.4607C590.852 81.7098 591.106 81.1043 591.615 80.6441C592.148 80.1597 592.814 79.9175 593.613 79.9175C594.413 79.9175 595.067 80.1597 595.575 80.6441C596.108 81.1043 596.374 81.7098 596.374 82.4607C596.374 83.1873 596.108 83.8049 595.575 84.3135C595.067 84.798 594.413 85.0402 593.613 85.0402ZM608.788 106.258C607.553 106.258 606.475 106.064 605.554 105.676C604.658 105.289 603.956 104.647 603.447 103.751C602.939 102.855 602.684 101.644 602.684 100.118V91.6161H599.56V87.9467H602.684L603.193 83.1146H607.044V87.9467H612.021V91.6161H607.044V100.118C607.044 101.038 607.238 101.68 607.625 102.043C608.037 102.382 608.715 102.552 609.66 102.552H611.912V106.258H608.788ZM618.339 114.25L622.808 104.223H621.718L614.415 87.9467H619.175L624.625 100.372L629.784 87.9467H634.398L622.953 114.25H618.339Z" fill="black"/>
<path d="M176 107L222 43.9999L222 51.9999L176 115L176 107Z" fill="#D9D9D9"/>
</svg>
