<svg width="1905" height="1064" viewBox="0 0 1905 1064" fill="none" xmlns="http://www.w3.org/2000/svg" xmlns:xlink="http://www.w3.org/1999/xlink">
<g clip-path="url(#clip0_27_859)">
<rect width="1905" height="1064" fill="black"/>
<rect width="664" height="1064"/>



<circle cx="1406" cy="449" r="374.5" stroke="white"/>
<circle cx="1405.5" cy="527" r="296.105" stroke="white" stroke-width="0.790667"/>
<circle cx="1407" cy="615" r="207.5" stroke="white"/>
<circle cx="1348.5" cy="651.5" r="138" fill="#0A68FF" fill-opacity="0.1" stroke="#0A68FF"/>
<circle cx="1513.5" cy="526.5" r="69" fill="#D9D9D9" fill-opacity="0.1" stroke="white"/>
<circle cx="1548.5" cy="652" r="61.0576" fill="#D9D9D9" fill-opacity="0.1" stroke="white" stroke-width="0.884892"/>
<circle cx="1504" cy="747" r="43.6835" fill="#FF6663" fill-opacity="0.1" stroke="#FF6663" stroke-width="0.633094"/>








<line x1="1423" y1="963.5" x2="1348" y2="963.5" stroke="white"/>
<line x1="1348.5" y1="963" x2="1348.5" y2="789" stroke="white"/>
<line x1="1548" y1="747.5" x2="1662" y2="747.5" stroke="white"/>
<line x1="1661.5" y1="876" x2="1661.5" y2="747" stroke="white"/>
<circle cx="1549" cy="748" r="3" fill="white"/>
<circle cx="1696" cy="875" r="3" fill="white"/>
<circle cx="1348" cy="791" r="3" fill="white"/>
<circle cx="1425" cy="963" r="3" fill="white"/>
<line x1="1662" y1="875.5" x2="1694" y2="875.5" stroke="white"/>
























</g>
<defs>

<clipPath id="clip0_27_859">
<rect width="1905" height="1064" fill="white"/>
</clipPath>

</defs>
</svg>
