<svg width="454" height="349" viewBox="0 0 454 349" fill="none" xmlns="http://www.w3.org/2000/svg">
<path d="M21.0169 327.24C21.8169 328.4 22.2169 329.8 22.2169 331.44C22.2169 333.84 21.4569 335.68 19.9769 337C18.4569 338.36 16.4169 339 13.8569 339H3.49688V311.4H13.6169C16.1769 311.4 18.1769 312.04 19.6169 313.32C21.0569 314.6 21.7769 316.36 21.7769 318.68C21.7769 320.12 21.3769 321.36 20.6569 322.48C19.8969 323.6 18.8569 324.4 17.5369 324.8C19.0569 325.28 20.2169 326.12 21.0169 327.24ZM6.41688 314V323.6H13.2969C15.0169 323.6 16.3769 323.24 17.3769 322.44C18.3369 321.64 18.8569 320.44 18.8569 318.84C18.8569 317.24 18.3769 316.04 17.4169 315.24C16.4569 314.44 15.0969 314 13.3369 314H6.41688ZM17.7769 335.08C18.7769 334.2 19.2969 332.92 19.2969 331.24C19.2969 329.6 18.7769 328.36 17.7769 327.48C16.7769 326.64 15.3769 326.2 13.5369 326.2H6.41688V336.4H13.4969C15.3369 336.4 16.7369 335.96 17.7769 335.08ZM46.2672 332.36H34.5472L32.2272 339H29.1472L39.1872 311.4H41.6272L51.6672 339H48.5872L46.2672 332.36ZM45.4272 329.88L40.3872 315.48L35.3872 329.88H45.4272ZM71.8272 314.04H63.9472V339H61.0672V314.04H53.1872V311.4H71.8272V314.04ZM95.1241 314.04H87.2441V339H84.3641V314.04H76.4841V311.4H95.1241V314.04ZM105.581 314.04V323.64H117.421V326.28H105.581V336.36H119.421V339H102.661V311.4H119.421V314.04H105.581ZM138.096 326.88H131.456V339H128.536V311.4H138.776C141.336 311.4 143.376 312.08 144.856 313.44C146.336 314.8 147.096 316.68 147.096 319.16C147.096 321.16 146.576 322.76 145.536 324.04C144.496 325.32 143.016 326.2 141.176 326.6L147.696 339H144.336L138.096 326.88ZM131.456 324.36H138.536C140.296 324.36 141.696 323.92 142.696 323.04C143.656 322.16 144.176 320.88 144.176 319.2C144.176 317.52 143.656 316.24 142.696 315.36C141.736 314.48 140.336 314.04 138.536 314.04H131.456V324.36ZM164.721 327.44V339H161.801V327.4L153.561 311.4H156.721L163.241 324.64L169.801 311.4H172.961L164.721 327.44ZM207.314 332.36H195.594L193.274 339H190.194L200.234 311.4H202.674L212.714 339H209.634L207.314 332.36ZM206.474 329.88L201.434 315.48L196.434 329.88H206.474ZM221.928 336.8C220.168 335.12 219.288 332.44 219.288 328.76V321.6C219.288 317.96 220.168 315.28 221.928 313.6C223.688 311.92 226.048 311.04 229.008 311.04C230.848 311.04 232.488 311.4 233.928 312.08C235.368 312.8 236.448 313.76 237.248 315.04C238.008 316.32 238.408 317.8 238.408 319.48V319.6H235.488V319.48C235.488 317.72 234.888 316.28 233.728 315.24C232.568 314.2 231.008 313.68 229.008 313.68C226.768 313.68 225.088 314.32 223.928 315.56C222.768 316.84 222.208 318.88 222.208 321.72V328.92C222.208 334.08 224.488 336.64 229.048 336.64C231.048 336.64 232.608 336.16 233.768 335.12C234.888 334.08 235.488 332.68 235.488 330.88V330.72H238.328V330.88C238.328 333.48 237.488 335.52 235.808 337.04C234.128 338.56 231.848 339.32 229.008 339.32C226.048 339.32 223.688 338.48 221.928 336.8ZM250.342 336.8C248.583 335.12 247.702 332.44 247.702 328.76V321.6C247.702 317.96 248.583 315.28 250.342 313.6C252.103 311.92 254.463 311.04 257.423 311.04C259.263 311.04 260.903 311.4 262.343 312.08C263.783 312.8 264.863 313.76 265.663 315.04C266.423 316.32 266.823 317.8 266.823 319.48V319.6H263.903V319.48C263.903 317.72 263.303 316.28 262.143 315.24C260.983 314.2 259.423 313.68 257.423 313.68C255.183 313.68 253.503 314.32 252.343 315.56C251.183 316.84 250.623 318.88 250.623 321.72V328.92C250.623 334.08 252.903 336.64 257.463 336.64C259.463 336.64 261.023 336.16 262.183 335.12C263.303 334.08 263.903 332.68 263.903 330.88V330.72H266.743V330.88C266.743 333.48 265.903 335.52 264.223 337.04C262.543 338.56 260.263 339.32 257.423 339.32C254.463 339.32 252.103 338.48 250.342 336.8ZM278.677 336.8C276.957 335.12 276.117 332.44 276.117 328.76V321.6C276.117 317.96 276.957 315.28 278.717 313.6C280.437 311.92 282.757 311.04 285.717 311.04C288.597 311.04 290.917 311.92 292.637 313.6C294.357 315.28 295.237 317.96 295.237 321.6V328.76C295.237 332.44 294.357 335.12 292.637 336.8C290.877 338.48 288.557 339.32 285.677 339.32C282.717 339.32 280.397 338.48 278.677 336.8ZM292.317 328.92V321.72C292.317 316.36 290.117 313.68 285.717 313.68C283.477 313.68 281.837 314.32 280.717 315.6C279.597 316.88 279.037 318.92 279.037 321.72V328.92C279.037 331.64 279.597 333.6 280.717 334.8C281.837 336.04 283.517 336.64 285.717 336.64C290.117 336.64 292.317 334.08 292.317 328.92ZM309.731 338.08C308.291 337.32 307.131 336.24 306.331 334.8C305.491 333.4 305.091 331.8 305.091 330V311.4H308.051V329.76C308.051 331.88 308.611 333.56 309.811 334.8C311.011 336.04 312.611 336.64 314.611 336.64C316.571 336.64 318.171 336.04 319.371 334.8C320.571 333.56 321.171 331.88 321.171 329.76V311.4H324.091V330C324.091 331.84 323.651 333.44 322.851 334.84C322.051 336.24 320.931 337.32 319.491 338.08C318.051 338.88 316.411 339.24 314.611 339.24C312.771 339.24 311.171 338.88 309.731 338.08ZM354.601 311.4V339H351.681L337.401 316.76V339H334.481V311.4H337.401L351.681 333.56V311.4H354.601ZM380.765 314.04H372.885V339H370.005V314.04H362.125V311.4H380.765V314.04ZM388.622 311.4H391.542V339H388.622V311.4ZM422.383 311.4V339H419.463L405.183 316.76V339H402.263V311.4H405.183L419.463 333.56V311.4H422.383ZM434.826 336.8C433.066 335.12 432.226 332.44 432.226 328.76V321.6C432.226 317.96 433.066 315.28 434.826 313.6C436.586 311.92 438.906 311.04 441.866 311.04C443.746 311.04 445.386 311.4 446.826 312.08C448.226 312.8 449.306 313.76 450.106 315.04C450.866 316.32 451.266 317.76 451.266 319.4V319.56H448.346V319.4C448.346 317.64 447.746 316.28 446.586 315.24C445.426 314.2 443.866 313.68 441.906 313.68C439.666 313.68 437.986 314.32 436.866 315.6C435.706 316.88 435.146 318.92 435.146 321.72V328.92C435.146 334.08 437.386 336.64 441.946 336.64C444.026 336.64 445.626 336.08 446.746 334.92C447.866 333.8 448.426 331.96 448.426 329.44V327.32H441.826V324.8H451.346V328.92C451.346 332.56 450.466 335.2 448.786 336.84C447.066 338.52 444.746 339.32 441.866 339.32C438.906 339.32 436.586 338.48 434.826 336.8Z" fill="white"/>
<path d="M288.075 189.25C277.742 189.25 269.012 188.25 261.887 186.25C254.804 184.208 249.304 181.167 245.387 177.125C241.471 173.083 239.179 168.042 238.512 162L238.387 161.062H263.2L263.262 161.625C263.721 163.917 264.908 165.812 266.825 167.312C268.742 168.812 271.512 169.938 275.137 170.688C278.762 171.396 283.325 171.75 288.825 171.75C293.408 171.75 297.262 171.417 300.387 170.75C303.554 170.042 305.929 169.042 307.512 167.75C309.137 166.458 309.95 164.896 309.95 163.062V162.938C309.95 160.562 309.012 158.792 307.137 157.625C305.262 156.458 301.825 155.604 296.825 155.062L271.637 152.938C264.554 152.229 258.679 150.854 254.012 148.812C249.346 146.729 245.867 143.958 243.575 140.5C241.325 137 240.2 132.771 240.2 127.812V127.688C240.2 121.979 241.95 117.104 245.45 113.062C248.95 109.021 254.033 105.938 260.7 103.812C267.408 101.646 275.492 100.562 284.95 100.562C294.617 100.562 302.825 101.562 309.575 103.562C316.367 105.562 321.679 108.542 325.512 112.5C329.346 116.417 331.658 121.312 332.45 127.188L332.575 128.375H307.825L307.7 127.938C307.158 125.604 305.971 123.729 304.137 122.312C302.304 120.854 299.742 119.792 296.45 119.125C293.158 118.417 288.992 118.062 283.95 118.062C279.7 118.062 276.158 118.396 273.325 119.062C270.492 119.688 268.367 120.625 266.95 121.875C265.533 123.083 264.825 124.562 264.825 126.312V126.375C264.825 127.833 265.283 129.083 266.2 130.125C267.158 131.125 268.637 131.958 270.637 132.625C272.679 133.292 275.304 133.812 278.512 134.188L304.075 136.312C314.492 137.396 322.179 139.958 327.137 144C332.137 148.042 334.637 153.833 334.637 161.375V161.438C334.637 167.354 332.804 172.396 329.137 176.562C325.471 180.688 320.158 183.833 313.2 186C306.283 188.167 297.908 189.25 288.075 189.25ZM283.512 199.062V90.75H289.262V199.062H283.512ZM358.75 190V173.188L403 146.688C407.75 143.854 411.396 141.438 413.938 139.438C416.479 137.396 418.229 135.542 419.188 133.875C420.146 132.167 420.625 130.333 420.625 128.375V128.25C420.625 125.917 419.917 123.917 418.5 122.25C417.125 120.542 415.125 119.229 412.5 118.312C409.917 117.396 406.812 116.938 403.188 116.938C399.229 116.938 395.771 117.5 392.812 118.625C389.896 119.708 387.562 121.292 385.812 123.375C384.104 125.458 383.083 127.938 382.75 130.812L382.688 131.562H357.5L357.562 130.938C358.021 124.104 360.188 118.229 364.062 113.312C367.938 108.354 373.25 104.562 380 101.938C386.792 99.2708 394.771 97.9375 403.938 97.9375C412.896 97.9375 420.583 99.1042 427 101.438C433.458 103.729 438.417 107 441.875 111.25C445.333 115.5 447.062 120.583 447.062 126.5V126.625C447.062 130.542 446.25 134.104 444.625 137.312C443.042 140.479 440.438 143.604 436.812 146.688C433.229 149.771 428.396 153.104 422.312 156.688L391.812 175.438L399.688 161.312V180L391 171H448.875V190H358.75Z" fill="white"/>
<path d="M372.249 75.84C371.363 75.84 370.499 75.6533 369.659 75.28C368.866 74.9533 368.259 74.37 367.839 73.53C367.466 72.6433 367.419 71.43 367.699 69.89L370.709 53.58C371.036 51.8533 371.059 50.78 370.779 50.36C370.546 49.94 369.729 49.73 368.329 49.73C368.143 49.73 368.073 49.59 368.119 49.31C368.166 49.03 368.259 48.89 368.399 48.89C370.033 48.89 371.433 48.3767 372.599 47.35C373.766 46.2767 374.536 44.9933 374.909 43.5C374.956 43.36 375.166 43.29 375.539 43.29C375.959 43.29 376.146 43.36 376.099 43.5L371.759 67.72C371.386 69.6333 371.456 71.0333 371.969 71.92C372.529 72.8067 373.533 73.25 374.979 73.25C376.333 73.25 377.546 72.9467 378.619 72.34C379.693 71.6867 380.719 70.94 381.699 70.1C381.793 70.0067 381.933 70.0533 382.119 70.24C382.353 70.4267 382.399 70.5667 382.259 70.66C380.159 72.5267 378.316 73.8567 376.729 74.65C375.143 75.4433 373.649 75.84 372.249 75.84ZM382.329 51.06C382.236 51.06 381.723 51.0133 380.789 50.92C379.856 50.78 378.759 50.6633 377.499 50.57C376.286 50.43 375.096 50.36 373.929 50.36L374.069 48.68C375.283 48.68 376.589 48.6333 377.989 48.54C379.389 48.4467 380.673 48.3767 381.839 48.33C383.006 48.2367 383.753 48.19 384.079 48.19C384.313 48.19 384.453 48.26 384.499 48.4C384.593 48.4933 384.616 48.6333 384.569 48.82C384.523 49.1933 384.243 49.66 383.729 50.22C383.263 50.78 382.796 51.06 382.329 51.06ZM395.764 75.56C395.11 75.56 394.667 75.5133 394.434 75.42C394.247 75.3733 394.154 75.28 394.154 75.14C394.154 74.9533 394.27 74.3233 394.504 73.25C394.784 72.1767 395.017 71.0333 395.204 69.82L402.344 31.67C402.67 29.99 402.484 28.94 401.784 28.52C401.084 28.1 399.684 28.4033 397.584 29.43C397.397 29.5233 397.234 29.43 397.094 29.15C397 28.87 397.047 28.7067 397.234 28.66L406.264 24.25C406.45 24.1567 406.637 24.2033 406.824 24.39C407.01 24.5767 407.08 24.7167 407.034 24.81L398.004 74.51C397.91 75.21 397.164 75.56 395.764 75.56ZM413.614 75.63C412.4 75.63 411.63 75.1167 411.304 74.09C411.024 73.0633 411.117 71.29 411.584 68.77L413.614 57.64C414.127 54.98 414.174 53.02 413.754 51.76C413.334 50.4533 412.424 49.8 411.024 49.8C409.53 49.8 407.967 50.7567 406.334 52.67C404.7 54.5833 403.137 57.3833 401.644 61.07C400.197 64.7567 398.984 69.2367 398.004 74.51L397.164 74.44C398.144 68.98 399.45 64.1967 401.084 60.09C402.717 55.9833 404.584 52.7867 406.684 50.5C408.83 48.2133 411.047 47.07 413.334 47.07C415.34 47.07 416.647 47.7933 417.254 49.24C417.907 50.6867 417.954 53.0433 417.394 56.31L415.084 68.77C414.85 70.17 414.827 71.1967 415.014 71.85C415.247 72.5033 415.667 72.83 416.274 72.83C416.787 72.83 417.44 72.55 418.234 71.99C419.027 71.3833 419.914 70.59 420.894 69.61C421.08 69.4233 421.267 69.4233 421.454 69.61C421.64 69.7967 421.64 69.9833 421.454 70.17C419.96 71.8967 418.584 73.25 417.324 74.23C416.064 75.1633 414.827 75.63 413.614 75.63ZM440.856 75.84C438.383 75.84 436.423 75.1867 434.976 73.88C433.576 72.5733 432.643 70.87 432.176 68.77C431.756 66.67 431.779 64.43 432.246 62.05C432.526 60.3233 433.133 58.5733 434.066 56.8C435.046 54.98 436.259 53.3467 437.706 51.9C439.153 50.4533 440.763 49.2867 442.536 48.4C444.309 47.5133 446.199 47.07 448.206 47.07C449.933 47.07 451.193 47.42 451.986 48.12C452.826 48.7733 453.153 49.6833 452.966 50.85C452.733 51.97 452.079 53.0433 451.006 54.07C449.933 55.0967 448.556 56.03 446.876 56.87C445.196 57.6633 443.306 58.3633 441.206 58.97C439.153 59.5767 437.006 59.9967 434.766 60.23L434.906 59.32C438.499 58.8067 441.509 57.99 443.936 56.87C446.409 55.7033 447.856 54.1867 448.276 52.32C448.603 51.06 448.393 50.1967 447.646 49.73C446.899 49.2167 446.059 48.96 445.126 48.96C443.539 48.96 442.163 49.45 440.996 50.43C439.829 51.41 438.873 52.7167 438.126 54.35C437.379 55.9833 436.843 57.78 436.516 59.74C436.003 62.3533 435.933 64.6867 436.306 66.74C436.726 68.7933 437.543 70.4267 438.756 71.64C439.969 72.8533 441.556 73.46 443.516 73.46C444.636 73.46 445.803 73.2967 447.016 72.97C448.229 72.6433 449.419 72.0367 450.586 71.15C450.726 71.0567 450.866 71.1033 451.006 71.29C451.193 71.4767 451.216 71.64 451.076 71.78C449.303 73.2267 447.576 74.2767 445.896 74.93C444.216 75.5367 442.536 75.84 440.856 75.84Z" fill="white"/>
<path d="M293.164 246V242.895H301.523C303.633 242.895 305.234 242.478 306.328 241.645C307.435 240.798 307.988 239.568 307.988 237.953V237.914C307.988 236.82 307.734 235.909 307.227 235.18C306.719 234.451 305.957 233.904 304.941 233.539C303.939 233.174 302.689 232.992 301.191 232.992H293.164V229.965H300.195C302.279 229.965 303.867 229.561 304.961 228.754C306.068 227.947 306.621 226.781 306.621 225.258V225.219C306.621 223.826 306.159 222.764 305.234 222.035C304.31 221.293 302.995 220.922 301.289 220.922H293.164V217.816H302.09C303.704 217.816 305.117 218.109 306.328 218.695C307.539 219.281 308.483 220.102 309.16 221.156C309.837 222.211 310.176 223.441 310.176 224.848V224.887C310.176 225.863 309.954 226.794 309.512 227.68C309.069 228.565 308.464 229.314 307.695 229.926C306.927 230.525 306.055 230.896 305.078 231.039V231.117C306.432 231.273 307.598 231.664 308.574 232.289C309.551 232.914 310.299 233.721 310.82 234.711C311.341 235.688 311.602 236.801 311.602 238.051V238.09C311.602 239.743 311.217 241.163 310.449 242.348C309.694 243.52 308.607 244.424 307.188 245.062C305.768 245.688 304.056 246 302.051 246H293.164ZM291.406 246V217.816H294.922V246H291.406ZM319.586 246V217.816H323.102V246H319.586ZM332.57 246V217.816H336.086V242.836H349.68V246H332.57ZM357.547 246V217.816H361.062V242.836H374.656V246H357.547ZM382.523 246V217.816H386.039V246H382.523ZM407.422 246.469C404.753 246.469 402.441 245.876 400.488 244.691C398.548 243.507 397.051 241.827 395.996 239.652C394.941 237.478 394.414 234.9 394.414 231.918V231.879C394.414 228.897 394.941 226.326 395.996 224.164C397.064 221.99 398.568 220.31 400.508 219.125C402.461 217.94 404.766 217.348 407.422 217.348C410.078 217.348 412.376 217.94 414.316 219.125C416.257 220.31 417.754 221.99 418.809 224.164C419.863 226.326 420.391 228.897 420.391 231.879V231.918C420.391 234.9 419.863 237.478 418.809 239.652C417.754 241.827 416.257 243.507 414.316 244.691C412.389 245.876 410.091 246.469 407.422 246.469ZM407.422 243.227C409.362 243.227 411.029 242.764 412.422 241.84C413.828 240.902 414.909 239.587 415.664 237.895C416.419 236.202 416.797 234.21 416.797 231.918V231.879C416.797 229.574 416.413 227.576 415.645 225.883C414.889 224.19 413.809 222.888 412.402 221.977C410.996 221.052 409.336 220.59 407.422 220.59C405.508 220.59 403.841 221.052 402.422 221.977C401.016 222.888 399.928 224.19 399.16 225.883C398.392 227.562 398.008 229.561 398.008 231.879V231.918C398.008 234.223 398.392 236.221 399.16 237.914C399.928 239.607 401.016 240.915 402.422 241.84C403.828 242.764 405.495 243.227 407.422 243.227ZM428.766 246V217.816H432.184L450.68 244.359L446.227 240.062H447.789V217.816H451.266V246H447.848L429.352 219.457L433.805 223.754H432.242V246H428.766Z" fill="white"/>
<path d="M132.662 287.33C131.352 287.33 130.172 287.122 129.122 286.707C128.08 286.284 127.189 285.678 126.449 284.888C125.716 284.091 125.155 283.126 124.764 281.995C124.374 280.864 124.178 279.582 124.178 278.15V278.125C124.178 276.246 124.52 274.63 125.204 273.279C125.887 271.92 126.856 270.879 128.109 270.154C129.37 269.422 130.86 269.056 132.577 269.056C133.993 269.056 135.242 269.308 136.324 269.812C137.407 270.317 138.29 271.005 138.973 271.875C139.657 272.746 140.092 273.739 140.279 274.854L140.316 275.025H136.629L136.581 274.891C136.296 274.036 135.807 273.373 135.116 272.901C134.432 272.421 133.59 272.181 132.589 272.181C131.629 272.181 130.799 272.417 130.099 272.889C129.407 273.353 128.874 274.028 128.5 274.915C128.125 275.794 127.938 276.856 127.938 278.101V278.113C127.938 279.065 128.048 279.92 128.268 280.677C128.495 281.425 128.817 282.064 129.232 282.593C129.655 283.114 130.16 283.513 130.746 283.79C131.332 284.066 131.991 284.205 132.723 284.205C133.529 284.205 134.237 284.054 134.847 283.753C135.458 283.452 135.942 283.033 136.3 282.496C136.658 281.95 136.849 281.316 136.874 280.591L136.886 280.323H132.894V277.588H140.475V279.639C140.475 280.835 140.296 281.91 139.938 282.862C139.588 283.806 139.075 284.611 138.399 285.279C137.732 285.946 136.914 286.455 135.946 286.805C134.977 287.155 133.883 287.33 132.662 287.33Z" fill="white"/>
<path d="M281.947 287L288.099 269.385H291.334V272.815H290.223L285.829 287H281.947ZM285.255 282.728L286.158 279.969H294.361L295.265 282.728H285.255ZM294.703 287L290.309 272.815V269.385H292.433L298.573 287H294.703Z" fill="white"/>
<path d="M441.781 281.446V278.565H446.139C447.197 278.565 448.019 278.296 448.604 277.759C449.19 277.214 449.483 276.441 449.483 275.44V275.416C449.483 274.415 449.19 273.646 448.604 273.108C448.019 272.571 447.197 272.303 446.139 272.303H441.781V269.385H447.03C448.275 269.385 449.357 269.638 450.277 270.142C451.205 270.639 451.925 271.338 452.438 272.242C452.958 273.145 453.219 274.199 453.219 275.403V275.428C453.219 276.64 452.958 277.698 452.438 278.602C451.925 279.505 451.205 280.205 450.277 280.701C449.357 281.198 448.275 281.446 447.03 281.446H441.781ZM439.925 287V269.385H443.612V287H439.925Z" fill="white"/>
</svg>
