<svg preserveAspectRatio="none" width="100%" height="100%" overflow="visible" style="display: block;" viewBox="0 0 1001.41 1001.41" fill="none" xmlns="http://www.w3.org/2000/svg">
<path id="Ellipse 450" d="M413.818 993.454C478.527 1004.86 544.85 1003.42 608.999 989.195C673.149 974.973 733.869 948.256 787.693 910.568C841.518 872.88 887.391 824.959 922.696 769.542C958 714.126 982.044 652.298 993.454 587.589C1004.86 522.88 1003.42 456.557 989.195 392.408C974.973 328.258 948.256 267.538 910.568 213.714C872.88 159.889 824.959 114.016 769.542 78.7112C714.126 43.4068 652.298 19.3632 587.589 7.95325C522.88 -3.45668 456.557 -2.00953 392.408 12.2121C328.258 26.4337 267.538 53.1513 213.714 90.8393C159.889 128.527 114.016 176.448 78.7112 231.865C43.4067 287.282 19.3632 349.109 7.95325 413.818C-3.45668 478.527 -2.00952 544.85 12.2121 608.999C26.4337 673.149 53.1513 733.869 90.8394 787.694C128.527 841.518 176.448 887.392 231.865 922.696C287.282 958 349.109 982.044 413.818 993.454L413.818 993.454Z" stroke="var(--stroke-0, white)" stroke-width="0.703537"/>
</svg>
