<svg preserveAspectRatio="none" width="100%" height="100%" overflow="visible" style="display: block;" viewBox="0 0 750.86 750.86" fill="none" xmlns="http://www.w3.org/2000/svg">
<path id="Ellipse 451" d="M310.275 744.945C358.8 753.501 408.536 752.416 456.641 741.751C504.747 731.086 550.282 711.051 590.645 682.788C631.008 654.526 665.408 618.59 691.883 577.033C718.358 535.476 736.389 489.111 744.945 440.586C753.501 392.06 752.416 342.325 741.751 294.219C731.086 246.113 711.051 200.579 682.788 160.216C654.526 119.853 618.59 85.4519 577.033 58.977C535.476 32.5021 489.111 14.4718 440.586 5.91547C392.06 -2.64087 342.325 -1.55565 294.219 9.10918C246.113 19.774 200.579 39.8096 160.216 68.072C119.853 96.3343 85.4519 132.27 58.977 173.827C32.5021 215.384 14.4718 261.749 5.91546 310.275C-2.64087 358.8 -1.55564 408.536 9.10919 456.642C19.774 504.748 39.8096 550.282 68.072 590.645C96.3343 631.008 132.27 665.409 173.827 691.883C215.384 718.358 261.749 736.389 310.275 744.945L310.275 744.945Z" stroke="var(--stroke-0, white)" stroke-width="0.430189"/>
</svg>
