<svg width="1905" height="77" viewBox="0 0 1905 77" fill="none" xmlns="http://www.w3.org/2000/svg">
<path d="M1151.36 31.9571C1151.78 32.3531 1152 32.9031 1152 33.6291C1152 34.3111 1151.78 34.8501 1151.35 35.2351C1150.92 35.6311 1150.33 35.8181 1149.61 35.8181H1147.68V38.9531H1146.88V31.3631H1149.61C1150.35 31.3631 1150.93 31.5611 1151.36 31.9571ZM1150.76 34.7291C1151.05 34.4871 1151.19 34.1241 1151.19 33.6291C1151.19 33.1121 1151.05 32.7271 1150.76 32.4741C1150.48 32.2211 1150.07 32.0891 1149.54 32.0891H1147.68V35.0921H1149.54C1150.07 35.0921 1150.48 34.9711 1150.76 34.7291ZM1154.82 33.3761H1155.56V34.1241C1155.71 33.8491 1155.91 33.6401 1156.17 33.5081C1156.42 33.3761 1156.7 33.2991 1157.02 33.2991C1157.16 33.2991 1157.3 33.3101 1157.43 33.3321V34.0801C1157.25 34.0251 1157.06 33.9921 1156.86 33.9921C1156.47 33.9921 1156.17 34.1241 1155.92 34.3881C1155.68 34.6521 1155.57 35.0041 1155.57 35.4221V38.9531H1154.82V33.3761ZM1160.59 38.4801C1160.19 38.1171 1160 37.5341 1160 36.7311V35.5871C1160 34.7951 1160.19 34.2231 1160.59 33.8491C1160.97 33.4861 1161.49 33.2991 1162.15 33.2991C1162.79 33.2991 1163.29 33.4861 1163.68 33.8491C1164.06 34.2231 1164.26 34.7951 1164.26 35.5871V36.7311C1164.26 37.5231 1164.06 38.1061 1163.68 38.4691C1163.29 38.8431 1162.79 39.0191 1162.15 39.0191C1161.49 39.0191 1160.97 38.8431 1160.59 38.4801ZM1163.14 37.9851C1163.38 37.7431 1163.51 37.3031 1163.51 36.6871V35.6311C1163.51 35.0261 1163.38 34.5971 1163.14 34.3551C1162.9 34.1131 1162.57 33.9811 1162.15 33.9811C1161.71 33.9811 1161.37 34.1131 1161.13 34.3551C1160.87 34.5971 1160.75 35.0261 1160.75 35.6311V36.6871C1160.75 37.3031 1160.87 37.7431 1161.13 37.9851C1161.37 38.2271 1161.71 38.3481 1162.15 38.3481C1162.57 38.3481 1162.9 38.2271 1163.14 37.9851ZM1167.74 38.4691C1167.38 38.0951 1167.21 37.5231 1167.21 36.7311V35.5871C1167.21 34.8061 1167.38 34.2341 1167.74 33.8601C1168.09 33.4861 1168.54 33.2991 1169.1 33.2991C1169.77 33.2991 1170.27 33.5851 1170.6 34.1571V31.3631H1171.35V38.9531H1170.6V38.2161C1170.44 38.4801 1170.24 38.6891 1169.99 38.8211C1169.74 38.9531 1169.44 39.0191 1169.09 39.0191C1168.54 39.0191 1168.09 38.8431 1167.74 38.4691ZM1170.24 37.8861C1170.47 37.5781 1170.6 37.1821 1170.6 36.6761V35.6971C1170.6 35.1801 1170.47 34.7621 1170.25 34.4541C1170.02 34.1461 1169.68 33.9811 1169.24 33.9811C1168.38 33.9811 1167.97 34.5311 1167.97 35.6311V36.6871C1167.97 37.7981 1168.37 38.3481 1169.2 38.3481C1169.66 38.3481 1170 38.1941 1170.24 37.8861ZM1175.16 38.4801C1174.82 38.1171 1174.65 37.5891 1174.65 36.9071V33.3761H1175.4V36.8081C1175.4 37.3251 1175.5 37.7101 1175.7 37.9631C1175.89 38.2271 1176.22 38.3481 1176.7 38.3481C1177.16 38.3481 1177.5 38.2271 1177.7 37.9741C1177.9 37.7321 1178 37.3361 1178 36.8081V33.3761H1178.74V36.9071C1178.74 37.5891 1178.57 38.1171 1178.23 38.4801C1177.89 38.8431 1177.37 39.0191 1176.69 39.0191C1176 39.0191 1175.5 38.8431 1175.16 38.4801ZM1182.46 38.4801C1182.06 38.1171 1181.87 37.5341 1181.87 36.7311V35.5871C1181.87 34.7951 1182.06 34.2231 1182.46 33.8491C1182.85 33.4861 1183.38 33.2991 1184.04 33.2991C1184.68 33.2991 1185.17 33.4751 1185.55 33.8051C1185.92 34.1461 1186.11 34.5971 1186.11 35.1581V35.2131H1185.38V35.1581C1185.38 34.7841 1185.26 34.4981 1185.03 34.2891C1184.79 34.0911 1184.47 33.9811 1184.07 33.9811C1183.61 33.9811 1183.26 34.1131 1183.01 34.3551C1182.74 34.5971 1182.62 35.0261 1182.62 35.6311V36.6871C1182.62 37.3031 1182.74 37.7431 1182.99 37.9851C1183.25 38.2271 1183.6 38.3481 1184.06 38.3481C1184.47 38.3481 1184.79 38.2491 1185.03 38.0401C1185.26 37.8421 1185.38 37.5451 1185.38 37.1711V37.1161H1186.11V37.1601C1186.11 37.7321 1185.92 38.1831 1185.55 38.5131C1185.17 38.8541 1184.67 39.0191 1184.05 39.0191C1183.38 39.0191 1182.85 38.8431 1182.46 38.4801ZM1190.41 33.9701V37.5341C1190.41 38.0401 1190.64 38.2931 1191.12 38.2931H1191.56V38.9531H1191C1190.57 38.9531 1190.24 38.8321 1190 38.5901C1189.76 38.3481 1189.65 38.0071 1189.65 37.5671V33.9701H1188.78V33.3761H1189.65V32.1001L1190.41 31.7481V33.3761H1191.66V33.9701H1190.41Z" fill="white"/>
<path d="M1257.28 32.0891H1255.12V38.9531H1254.33V32.0891H1252.16V31.3631H1257.28V32.0891ZM1259.54 36.3131V36.6431C1259.54 37.2811 1259.66 37.7211 1259.93 37.9741C1260.18 38.2271 1260.53 38.3481 1261 38.3481C1261.39 38.3481 1261.7 38.2601 1261.92 38.0621C1262.14 37.8751 1262.26 37.6111 1262.26 37.2701V37.2371H1262.99V37.2921C1262.99 37.8201 1262.8 38.2381 1262.44 38.5461C1262.07 38.8651 1261.58 39.0191 1260.94 39.0191C1260.28 39.0191 1259.76 38.8321 1259.38 38.4361C1258.98 38.0511 1258.8 37.4461 1258.8 36.6211V35.6531C1258.8 34.8611 1258.98 34.2671 1259.38 33.8821C1259.76 33.4971 1260.28 33.2991 1260.92 33.2991C1261.56 33.2991 1262.06 33.4971 1262.45 33.8821C1262.83 34.2671 1263.03 34.8611 1263.03 35.6531V36.3131H1259.54ZM1259.92 34.3551C1259.66 34.5971 1259.54 35.0261 1259.54 35.6311V35.7521H1262.28V35.5541C1262.28 34.9821 1262.16 34.5751 1261.92 34.3331C1261.68 34.1021 1261.34 33.9811 1260.92 33.9811C1260.5 33.9811 1260.16 34.1131 1259.92 34.3551ZM1266.56 38.4801C1266.16 38.1171 1265.98 37.5341 1265.98 36.7311V35.5871C1265.98 34.7951 1266.16 34.2231 1266.56 33.8491C1266.96 33.4861 1267.48 33.2991 1268.14 33.2991C1268.78 33.2991 1269.28 33.4751 1269.65 33.8051C1270.03 34.1461 1270.21 34.5971 1270.21 35.1581V35.2131H1269.49V35.1581C1269.49 34.7841 1269.37 34.4981 1269.13 34.2891C1268.89 34.0911 1268.57 33.9811 1268.18 33.9811C1267.72 33.9811 1267.36 34.1131 1267.11 34.3551C1266.85 34.5971 1266.73 35.0261 1266.73 35.6311V36.6871C1266.73 37.3031 1266.85 37.7431 1267.1 37.9851C1267.35 38.2271 1267.7 38.3481 1268.17 38.3481C1268.57 38.3481 1268.89 38.2491 1269.13 38.0401C1269.37 37.8421 1269.49 37.5451 1269.49 37.1711V37.1161H1270.21V37.1601C1270.21 37.7321 1270.03 38.1831 1269.65 38.5131C1269.28 38.8541 1268.77 39.0191 1268.16 39.0191C1267.48 39.0191 1266.96 38.8431 1266.56 38.4801ZM1273.34 31.3631H1274.08V34.0581C1274.41 33.5631 1274.92 33.3101 1275.58 33.3101C1276.15 33.3101 1276.6 33.4861 1276.93 33.8271C1277.26 34.1791 1277.43 34.6631 1277.43 35.2901V38.9531H1276.68V35.4001C1276.68 34.9381 1276.56 34.5861 1276.34 34.3441C1276.11 34.1021 1275.79 33.9811 1275.39 33.9811C1275 33.9811 1274.68 34.1131 1274.44 34.3551C1274.19 34.5971 1274.08 34.9491 1274.08 35.4001V38.9531H1273.34V31.3631ZM1280.73 33.3761H1281.47V34.0581C1281.62 33.8161 1281.83 33.6291 1282.1 33.4971C1282.36 33.3761 1282.65 33.3101 1282.98 33.3101C1283.57 33.3101 1284.02 33.4861 1284.34 33.8381C1284.66 34.1901 1284.82 34.6741 1284.82 35.2901V38.9531H1284.08V35.4001C1284.08 34.9381 1283.96 34.5861 1283.74 34.3441C1283.5 34.1021 1283.19 33.9811 1282.79 33.9811C1282.39 33.9811 1282.07 34.1131 1281.83 34.3551C1281.59 34.5971 1281.48 34.9491 1281.48 35.4001V38.9531H1280.73V33.3761ZM1288.54 38.4801C1288.14 38.1171 1287.95 37.5341 1287.95 36.7311V35.5871C1287.95 34.7951 1288.14 34.2231 1288.54 33.8491C1288.92 33.4861 1289.44 33.2991 1290.1 33.2991C1290.74 33.2991 1291.24 33.4861 1291.63 33.8491C1292.01 34.2231 1292.21 34.7951 1292.21 35.5871V36.7311C1292.21 37.5231 1292.01 38.1061 1291.63 38.4691C1291.24 38.8431 1290.74 39.0191 1290.1 39.0191C1289.44 39.0191 1288.92 38.8431 1288.54 38.4801ZM1291.09 37.9851C1291.33 37.7431 1291.46 37.3031 1291.46 36.6871V35.6311C1291.46 35.0261 1291.33 34.5971 1291.09 34.3551C1290.85 34.1131 1290.52 33.9811 1290.1 33.9811C1289.66 33.9811 1289.32 34.1131 1289.08 34.3551C1288.82 34.5971 1288.7 35.0261 1288.7 35.6311V36.6871C1288.7 37.3031 1288.82 37.7431 1289.08 37.9851C1289.32 38.2271 1289.66 38.3481 1290.1 38.3481C1290.52 38.3481 1290.85 38.2271 1291.09 37.9851ZM1295.69 38.5791C1295.44 38.3371 1295.33 37.9741 1295.33 37.4901V31.3631H1296.08V37.4461C1296.08 37.7321 1296.14 37.9411 1296.25 38.0731C1296.36 38.2051 1296.53 38.2711 1296.79 38.2711H1297.24V38.9531H1296.71C1296.26 38.9531 1295.92 38.8321 1295.69 38.5791ZM1300.4 38.4801C1300 38.1171 1299.82 37.5341 1299.82 36.7311V35.5871C1299.82 34.7951 1300 34.2231 1300.4 33.8491C1300.78 33.4861 1301.3 33.2991 1301.96 33.2991C1302.6 33.2991 1303.1 33.4861 1303.49 33.8491C1303.87 34.2231 1304.07 34.7951 1304.07 35.5871V36.7311C1304.07 37.5231 1303.87 38.1061 1303.49 38.4691C1303.1 38.8431 1302.6 39.0191 1301.96 39.0191C1301.3 39.0191 1300.78 38.8431 1300.4 38.4801ZM1302.95 37.9851C1303.19 37.7431 1303.32 37.3031 1303.32 36.6871V35.6311C1303.32 35.0261 1303.19 34.5971 1302.95 34.3551C1302.71 34.1131 1302.38 33.9811 1301.96 33.9811C1301.52 33.9811 1301.18 34.1131 1300.94 34.3551C1300.68 34.5971 1300.56 35.0261 1300.56 35.6311V36.6871C1300.56 37.3031 1300.68 37.7431 1300.94 37.9851C1301.18 38.2271 1301.52 38.3481 1301.96 38.3481C1302.38 38.3481 1302.71 38.2271 1302.95 37.9851ZM1307.69 40.2951C1307.34 40.0311 1307.15 39.6791 1307.12 39.2281H1307.87C1307.9 39.4701 1308.02 39.6681 1308.24 39.8221C1308.46 39.9761 1308.75 40.0421 1309.1 40.0421C1309.97 40.0421 1310.41 39.5581 1310.41 38.5791V37.7981C1310.25 38.0621 1310.05 38.2711 1309.8 38.4031C1309.55 38.5461 1309.25 38.6121 1308.9 38.6121C1308.35 38.6121 1307.9 38.4361 1307.55 38.0621C1307.19 37.6881 1307.02 37.1051 1307.02 36.3131V35.5431C1307.02 34.7621 1307.19 34.1901 1307.55 33.8161C1307.9 33.4531 1308.35 33.2661 1308.91 33.2661C1309.59 33.2661 1310.09 33.5521 1310.41 34.1131V33.3321H1311.17V38.5131C1311.17 39.1951 1310.98 39.7231 1310.62 40.1081C1310.25 40.5041 1309.75 40.6911 1309.1 40.6911C1308.5 40.6911 1308.04 40.5591 1307.69 40.2951ZM1310.05 37.4681C1310.29 37.1601 1310.41 36.7641 1310.41 36.2581V35.6531C1310.41 35.1361 1310.29 34.7181 1310.07 34.4101C1309.83 34.1021 1309.49 33.9371 1309.05 33.9371C1308.2 33.9371 1307.78 34.4981 1307.78 35.5981V36.2691C1307.78 37.3801 1308.18 37.9301 1309.01 37.9301C1309.47 37.9301 1309.81 37.7761 1310.05 37.4681ZM1318.31 33.3761L1316.17 39.5581C1316.04 39.9321 1315.85 40.2071 1315.62 40.3721C1315.39 40.5481 1315.08 40.6251 1314.71 40.6251H1314.38V39.9431H1314.65C1314.91 39.9431 1315.12 39.8881 1315.26 39.7781C1315.39 39.6681 1315.51 39.4921 1315.6 39.2391L1315.71 38.8981L1313.79 33.3761H1314.61L1316.07 37.8091L1317.53 33.3761H1318.31Z" fill="white"/>
<path d="M1389.64 35.6201H1387.82V38.9531H1387.01V31.3631H1389.83C1390.53 31.3631 1391.09 31.5501 1391.5 31.9241C1391.91 32.2981 1392.12 32.8151 1392.12 33.4971C1392.12 34.0471 1391.97 34.4871 1391.69 34.8391C1391.4 35.1911 1390.99 35.4331 1390.49 35.5431L1392.28 38.9531H1391.36L1389.64 35.6201ZM1387.82 34.9271H1389.76C1390.25 34.9271 1390.63 34.8061 1390.91 34.5641C1391.17 34.3221 1391.31 33.9701 1391.31 33.5081C1391.31 33.0461 1391.17 32.6941 1390.91 32.4521C1390.64 32.2101 1390.26 32.0891 1389.76 32.0891H1387.82V34.9271ZM1395.63 36.3131V36.6431C1395.63 37.2811 1395.75 37.7211 1396.01 37.9741C1396.26 38.2271 1396.62 38.3481 1397.08 38.3481C1397.47 38.3481 1397.78 38.2601 1398 38.0621C1398.22 37.8751 1398.34 37.6111 1398.34 37.2701V37.2371H1399.07V37.2921C1399.07 37.8201 1398.88 38.2381 1398.52 38.5461C1398.16 38.8651 1397.66 39.0191 1397.02 39.0191C1396.36 39.0191 1395.85 38.8321 1395.46 38.4361C1395.06 38.0511 1394.88 37.4461 1394.88 36.6211V35.6531C1394.88 34.8611 1395.06 34.2671 1395.46 33.8821C1395.85 33.4971 1396.36 33.2991 1397 33.2991C1397.64 33.2991 1398.14 33.4971 1398.53 33.8821C1398.91 34.2671 1399.11 34.8611 1399.11 35.6531V36.3131H1395.63ZM1396 34.3551C1395.75 34.5971 1395.63 35.0261 1395.63 35.6311V35.7521H1398.36V35.5541C1398.36 34.9821 1398.24 34.5751 1398 34.3331C1397.76 34.1021 1397.42 33.9811 1397 33.9811C1396.58 33.9811 1396.24 34.1131 1396 34.3551ZM1402.73 40.2951C1402.38 40.0311 1402.19 39.6791 1402.16 39.2281H1402.91C1402.94 39.4701 1403.06 39.6681 1403.28 39.8221C1403.5 39.9761 1403.79 40.0421 1404.14 40.0421C1405.01 40.0421 1405.45 39.5581 1405.45 38.5791V37.7981C1405.29 38.0621 1405.1 38.2711 1404.84 38.4031C1404.59 38.5461 1404.29 38.6121 1403.94 38.6121C1403.39 38.6121 1402.94 38.4361 1402.59 38.0621C1402.24 37.6881 1402.06 37.1051 1402.06 36.3131V35.5431C1402.06 34.7621 1402.24 34.1901 1402.59 33.8161C1402.94 33.4531 1403.39 33.2661 1403.95 33.2661C1404.63 33.2661 1405.13 33.5521 1405.45 34.1131V33.3321H1406.21V38.5131C1406.21 39.1951 1406.02 39.7231 1405.66 40.1081C1405.29 40.5041 1404.79 40.6911 1404.14 40.6911C1403.54 40.6911 1403.08 40.5591 1402.73 40.2951ZM1405.1 37.4681C1405.33 37.1601 1405.45 36.7641 1405.45 36.2581V35.6531C1405.45 35.1361 1405.33 34.7181 1405.11 34.4101C1404.88 34.1021 1404.53 33.9371 1404.09 33.9371C1403.24 33.9371 1402.82 34.4981 1402.82 35.5981V36.2691C1402.82 37.3801 1403.23 37.9301 1404.05 37.9301C1404.51 37.9301 1404.85 37.7761 1405.1 37.4681ZM1410.01 38.4801C1409.67 38.1171 1409.5 37.5891 1409.5 36.9071V33.3761H1410.25V36.8081C1410.25 37.3251 1410.35 37.7101 1410.55 37.9631C1410.75 38.2271 1411.08 38.3481 1411.55 38.3481C1412.01 38.3481 1412.35 38.2271 1412.55 37.9741C1412.75 37.7321 1412.85 37.3361 1412.85 36.8081V33.3761H1413.6V36.9071C1413.6 37.5891 1413.42 38.1171 1413.08 38.4801C1412.74 38.8431 1412.22 39.0191 1411.54 39.0191C1410.86 39.0191 1410.35 38.8431 1410.01 38.4801ZM1417.25 38.5791C1417.01 38.3371 1416.9 37.9741 1416.9 37.4901V31.3631H1417.65V37.4461C1417.65 37.7321 1417.7 37.9411 1417.81 38.0731C1417.92 38.2051 1418.1 38.2711 1418.35 38.2711H1418.8V38.9531H1418.28C1417.82 38.9531 1417.48 38.8321 1417.25 38.5791ZM1424.85 33.7721C1425.2 34.0911 1425.38 34.5531 1425.38 35.1581V38.9531H1424.64V38.3591C1424.46 38.5901 1424.25 38.7551 1424.01 38.8651C1423.76 38.9751 1423.45 39.0191 1423.1 39.0191C1422.5 39.0191 1422.05 38.8871 1421.73 38.6011C1421.4 38.3261 1421.25 37.9191 1421.25 37.3801C1421.25 36.8851 1421.4 36.5001 1421.73 36.2141C1422.06 35.9281 1422.53 35.7851 1423.12 35.7851H1424.63V35.1471C1424.63 34.7511 1424.52 34.4431 1424.3 34.2341C1424.08 34.0361 1423.76 33.9261 1423.36 33.9261C1422.98 33.9261 1422.68 34.0141 1422.46 34.1901C1422.24 34.3661 1422.14 34.5971 1422.14 34.8941V34.9271H1421.42V34.8721C1421.42 34.3991 1421.58 34.0141 1421.93 33.7281C1422.27 33.4421 1422.75 33.2991 1423.35 33.2991C1424 33.2991 1424.5 33.4641 1424.85 33.7721ZM1424.29 38.0841C1424.51 37.8641 1424.63 37.5231 1424.63 37.0611V36.3351H1423.23C1422.41 36.3351 1422 36.6871 1422 37.3691C1422 38.0731 1422.41 38.4141 1423.22 38.4141C1423.7 38.4141 1424.07 38.3041 1424.29 38.0841ZM1429.85 33.9701V37.5341C1429.85 38.0401 1430.08 38.2931 1430.57 38.2931H1431.01V38.9531H1430.45C1430.02 38.9531 1429.69 38.8321 1429.45 38.5901C1429.2 38.3481 1429.09 38.0071 1429.09 37.5671V33.9701H1428.23V33.3761H1429.09V32.1001L1429.85 31.7481V33.3761H1431.11V33.9701H1429.85ZM1434.15 33.3761H1434.9V38.9531H1434.15V33.3761ZM1434.13 31.4731H1434.92V32.4631H1434.13V31.4731ZM1438.7 38.4801C1438.3 38.1171 1438.12 37.5341 1438.12 36.7311V35.5871C1438.12 34.7951 1438.3 34.2231 1438.7 33.8491C1439.08 33.4861 1439.6 33.2991 1440.26 33.2991C1440.9 33.2991 1441.41 33.4861 1441.79 33.8491C1442.18 34.2231 1442.37 34.7951 1442.37 35.5871V36.7311C1442.37 37.5231 1442.18 38.1061 1441.79 38.4691C1441.41 38.8431 1440.9 39.0191 1440.26 39.0191C1439.6 39.0191 1439.08 38.8431 1438.7 38.4801ZM1441.25 37.9851C1441.49 37.7431 1441.63 37.3031 1441.63 36.6871V35.6311C1441.63 35.0261 1441.49 34.5971 1441.25 34.3551C1441.01 34.1131 1440.68 33.9811 1440.26 33.9811C1439.82 33.9811 1439.48 34.1131 1439.24 34.3551C1438.99 34.5971 1438.86 35.0261 1438.86 35.6311V36.6871C1438.86 37.3031 1438.99 37.7431 1439.24 37.9851C1439.48 38.2271 1439.82 38.3481 1440.26 38.3481C1440.68 38.3481 1441.01 38.2271 1441.25 37.9851ZM1445.5 33.3761H1446.23V34.0581C1446.39 33.8161 1446.6 33.6291 1446.86 33.4971C1447.12 33.3761 1447.41 33.3101 1447.74 33.3101C1448.33 33.3101 1448.79 33.4861 1449.1 33.8381C1449.42 34.1901 1449.59 34.6741 1449.59 35.2901V38.9531H1448.84V35.4001C1448.84 34.9381 1448.72 34.5861 1448.5 34.3441C1448.27 34.1021 1447.95 33.9811 1447.55 33.9811C1447.16 33.9811 1446.84 34.1131 1446.6 34.3551C1446.35 34.5971 1446.24 34.9491 1446.24 35.4001V38.9531H1445.5V33.3761Z" fill="white"/>
<path d="M1518.78 32.0891H1516.62V38.9531H1515.83V32.0891H1513.66V31.3631H1518.78V32.0891ZM1520.6 33.3761H1521.34V34.1241C1521.49 33.8491 1521.69 33.6401 1521.94 33.5081C1522.2 33.3761 1522.48 33.2991 1522.8 33.2991C1522.93 33.2991 1523.08 33.3101 1523.21 33.3321V34.0801C1523.03 34.0251 1522.83 33.9921 1522.64 33.9921C1522.25 33.9921 1521.94 34.1241 1521.7 34.3881C1521.46 34.6521 1521.35 35.0041 1521.35 35.4221V38.9531H1520.6V33.3761ZM1529.25 33.7721C1529.6 34.0911 1529.77 34.5531 1529.77 35.1581V38.9531H1529.04V38.3591C1528.86 38.5901 1528.65 38.7551 1528.41 38.8651C1528.16 38.9751 1527.85 39.0191 1527.5 39.0191C1526.9 39.0191 1526.45 38.8871 1526.13 38.6011C1525.8 38.3261 1525.65 37.9191 1525.65 37.3801C1525.65 36.8851 1525.8 36.5001 1526.13 36.2141C1526.46 35.9281 1526.92 35.7851 1527.52 35.7851H1529.03V35.1471C1529.03 34.7511 1528.92 34.4431 1528.7 34.2341C1528.48 34.0361 1528.16 33.9261 1527.76 33.9261C1527.38 33.9261 1527.08 34.0141 1526.86 34.1901C1526.64 34.3661 1526.54 34.5971 1526.54 34.8941V34.9271H1525.81V34.8721C1525.81 34.3991 1525.98 34.0141 1526.33 33.7281C1526.67 33.4421 1527.14 33.2991 1527.75 33.2991C1528.4 33.2991 1528.89 33.4641 1529.25 33.7721ZM1528.68 38.0841C1528.9 37.8641 1529.03 37.5231 1529.03 37.0611V36.3351H1527.63C1526.8 36.3351 1526.4 36.6871 1526.4 37.3691C1526.4 38.0731 1526.8 38.4141 1527.62 38.4141C1528.1 38.4141 1528.46 38.3041 1528.68 38.0841ZM1533.48 38.4801C1533.08 38.1171 1532.9 37.5341 1532.9 36.7311V35.5871C1532.9 34.7951 1533.08 34.2231 1533.48 33.8491C1533.88 33.4861 1534.4 33.2991 1535.06 33.2991C1535.7 33.2991 1536.2 33.4751 1536.57 33.8051C1536.95 34.1461 1537.13 34.5971 1537.13 35.1581V35.2131H1536.41V35.1581C1536.41 34.7841 1536.29 34.4981 1536.05 34.2891C1535.81 34.0911 1535.49 33.9811 1535.1 33.9811C1534.64 33.9811 1534.28 34.1131 1534.03 34.3551C1533.77 34.5971 1533.65 35.0261 1533.65 35.6311V36.6871C1533.65 37.3031 1533.77 37.7431 1534.02 37.9851C1534.27 38.2271 1534.62 38.3481 1535.09 38.3481C1535.49 38.3481 1535.81 38.2491 1536.05 38.0401C1536.29 37.8421 1536.41 37.5451 1536.41 37.1711V37.1161H1537.13V37.1601C1537.13 37.7321 1536.95 38.1831 1536.57 38.5131C1536.2 38.8541 1535.69 39.0191 1535.08 39.0191C1534.4 39.0191 1533.88 38.8431 1533.48 38.4801ZM1541.43 33.9701V37.5341C1541.43 38.0401 1541.66 38.2931 1542.15 38.2931H1542.59V38.9531H1542.03C1541.6 38.9531 1541.27 38.8321 1541.03 38.5901C1540.78 38.3481 1540.67 38.0071 1540.67 37.5671V33.9701H1539.81V33.3761H1540.67V32.1001L1541.43 31.7481V33.3761H1542.69V33.9701H1541.43ZM1545.73 33.3761H1546.48V38.9531H1545.73V33.3761ZM1545.71 31.4731H1546.5V32.4631H1545.71V31.4731ZM1550.28 38.4801C1549.88 38.1171 1549.7 37.5341 1549.7 36.7311V35.5871C1549.7 34.7951 1549.88 34.2231 1550.28 33.8491C1550.66 33.4861 1551.18 33.2991 1551.84 33.2991C1552.48 33.2991 1552.99 33.4861 1553.37 33.8491C1553.76 34.2231 1553.95 34.7951 1553.95 35.5871V36.7311C1553.95 37.5231 1553.76 38.1061 1553.37 38.4691C1552.99 38.8431 1552.48 39.0191 1551.84 39.0191C1551.18 39.0191 1550.66 38.8431 1550.28 38.4801ZM1552.83 37.9851C1553.07 37.7431 1553.21 37.3031 1553.21 36.6871V35.6311C1553.21 35.0261 1553.07 34.5971 1552.83 34.3551C1552.59 34.1131 1552.26 33.9811 1551.84 33.9811C1551.4 33.9811 1551.06 34.1131 1550.82 34.3551C1550.57 34.5971 1550.44 35.0261 1550.44 35.6311V36.6871C1550.44 37.3031 1550.57 37.7431 1550.82 37.9851C1551.06 38.2271 1551.4 38.3481 1551.84 38.3481C1552.26 38.3481 1552.59 38.2271 1552.83 37.9851ZM1557.08 33.3761H1557.81V34.0581C1557.97 33.8161 1558.18 33.6291 1558.44 33.4971C1558.7 33.3761 1558.99 33.3101 1559.32 33.3101C1559.91 33.3101 1560.37 33.4861 1560.68 33.8381C1561 34.1901 1561.17 34.6741 1561.17 35.2901V38.9531H1560.42V35.4001C1560.42 34.9381 1560.3 34.5861 1560.08 34.3441C1559.85 34.1021 1559.53 33.9811 1559.13 33.9811C1558.74 33.9811 1558.42 34.1131 1558.18 34.3551C1557.93 34.5971 1557.82 34.9491 1557.82 35.4001V38.9531H1557.08V33.3761Z" fill="white"/>
<path d="M1628.6 32.0891H1626.43V38.9531H1625.64V32.0891H1623.47V31.3631H1628.6V32.0891ZM1630.86 36.3131V36.6431C1630.86 37.2811 1630.98 37.7211 1631.24 37.9741C1631.49 38.2271 1631.85 38.3481 1632.31 38.3481C1632.7 38.3481 1633.01 38.2601 1633.23 38.0621C1633.45 37.8751 1633.57 37.6111 1633.57 37.2701V37.2371H1634.3V37.2921C1634.3 37.8201 1634.11 38.2381 1633.75 38.5461C1633.39 38.8651 1632.89 39.0191 1632.25 39.0191C1631.59 39.0191 1631.08 38.8321 1630.69 38.4361C1630.29 38.0511 1630.11 37.4461 1630.11 36.6211V35.6531C1630.11 34.8611 1630.29 34.2671 1630.69 33.8821C1631.08 33.4971 1631.59 33.2991 1632.23 33.2991C1632.87 33.2991 1633.37 33.4971 1633.76 33.8821C1634.14 34.2671 1634.34 34.8611 1634.34 35.6531V36.3131H1630.86ZM1631.23 34.3551C1630.98 34.5971 1630.86 35.0261 1630.86 35.6311V35.7521H1633.59V35.5541C1633.59 34.9821 1633.47 34.5751 1633.23 34.3331C1632.99 34.1021 1632.65 33.9811 1632.23 33.9811C1631.81 33.9811 1631.47 34.1131 1631.23 34.3551ZM1640.75 33.7721C1641.11 34.0911 1641.28 34.5531 1641.28 35.1581V38.9531H1640.55V38.3591C1640.37 38.5901 1640.16 38.7551 1639.92 38.8651C1639.67 38.9751 1639.36 39.0191 1639.01 39.0191C1638.41 39.0191 1637.96 38.8871 1637.64 38.6011C1637.31 38.3261 1637.16 37.9191 1637.16 37.3801C1637.16 36.8851 1637.31 36.5001 1637.64 36.2141C1637.97 35.9281 1638.43 35.7851 1639.03 35.7851H1640.53V35.1471C1640.53 34.7511 1640.42 34.4431 1640.2 34.2341C1639.98 34.0361 1639.67 33.9261 1639.27 33.9261C1638.88 33.9261 1638.59 34.0141 1638.37 34.1901C1638.15 34.3661 1638.05 34.5971 1638.05 34.8941V34.9271H1637.32V34.8721C1637.32 34.3991 1637.49 34.0141 1637.84 33.7281C1638.18 33.4421 1638.65 33.2991 1639.26 33.2991C1639.91 33.2991 1640.4 33.4641 1640.75 33.7721ZM1640.19 38.0841C1640.41 37.8641 1640.53 37.5231 1640.53 37.0611V36.3351H1639.14C1638.31 36.3351 1637.91 36.6871 1637.91 37.3691C1637.91 38.0731 1638.31 38.4141 1639.13 38.4141C1639.61 38.4141 1639.97 38.3041 1640.19 38.0841ZM1644.58 33.3761H1645.32V34.0581C1645.47 33.8161 1645.68 33.6401 1645.95 33.5081C1646.21 33.3761 1646.5 33.3101 1646.83 33.3101C1647.2 33.3101 1647.53 33.3981 1647.81 33.5521C1648.07 33.7171 1648.28 33.9481 1648.43 34.2451C1648.8 33.6291 1649.36 33.3101 1650.13 33.3101C1650.72 33.3101 1651.18 33.4861 1651.51 33.8381C1651.84 34.1901 1652.01 34.6741 1652.01 35.2901V38.9531H1651.26V35.4001C1651.26 34.9381 1651.14 34.5861 1650.92 34.3441C1650.7 34.1021 1650.38 33.9811 1649.98 33.9811C1649.57 33.9811 1649.25 34.1131 1649.02 34.3551C1648.79 34.5971 1648.68 34.9381 1648.68 35.3671V38.9531H1647.92V35.4001C1647.92 34.9381 1647.8 34.5861 1647.58 34.3441C1647.36 34.1021 1647.04 33.9811 1646.64 33.9811C1646.24 33.9811 1645.93 34.1131 1645.68 34.3551C1645.44 34.5971 1645.33 34.9491 1645.33 35.4001V38.9531H1644.58V33.3761Z" fill="white"/>
<path d="M1702.32 38.4581C1701.88 38.0841 1701.64 37.5341 1701.57 36.8081H1702.37C1702.46 37.8201 1703.07 38.3151 1704.17 38.3151C1704.74 38.3151 1705.17 38.1941 1705.47 37.9521C1705.76 37.7101 1705.92 37.3581 1705.92 36.8961C1705.92 36.4781 1705.8 36.1701 1705.57 35.9501C1705.32 35.7411 1704.97 35.5981 1704.5 35.5101L1703.64 35.3671C1703.03 35.2681 1702.55 35.0591 1702.22 34.7401C1701.89 34.4211 1701.73 33.9701 1701.73 33.3871C1701.73 32.7271 1701.95 32.1991 1702.4 31.8251C1702.84 31.4511 1703.43 31.2641 1704.17 31.2641C1704.84 31.2641 1705.39 31.4401 1705.82 31.7921C1706.25 32.1441 1706.5 32.6721 1706.59 33.3761H1705.8C1705.71 32.4301 1705.16 31.9571 1704.16 31.9571C1703.63 31.9571 1703.22 32.0891 1702.94 32.3311C1702.65 32.5731 1702.51 32.9141 1702.51 33.3321C1702.51 33.7061 1702.62 34.0031 1702.84 34.2121C1703.06 34.4211 1703.4 34.5641 1703.86 34.6411L1704.74 34.7951C1705.38 34.9051 1705.86 35.1251 1706.2 35.4551C1706.53 35.7851 1706.71 36.2581 1706.71 36.8521C1706.71 37.5451 1706.48 38.0841 1706.02 38.4581C1705.56 38.8321 1704.92 39.0191 1704.11 39.0191C1703.34 39.0191 1702.75 38.8321 1702.32 38.4581ZM1710.26 36.3131V36.6431C1710.26 37.2811 1710.38 37.7211 1710.65 37.9741C1710.9 38.2271 1711.25 38.3481 1711.71 38.3481C1712.11 38.3481 1712.42 38.2601 1712.64 38.0621C1712.86 37.8751 1712.98 37.6111 1712.98 37.2701V37.2371H1713.71V37.2921C1713.71 37.8201 1713.52 38.2381 1713.16 38.5461C1712.79 38.8651 1712.3 39.0191 1711.66 39.0191C1711 39.0191 1710.48 38.8321 1710.1 38.4361C1709.7 38.0511 1709.51 37.4461 1709.51 36.6211V35.6531C1709.51 34.8611 1709.7 34.2671 1710.1 33.8821C1710.48 33.4971 1711 33.2991 1711.64 33.2991C1712.28 33.2991 1712.78 33.4971 1713.17 33.8821C1713.55 34.2671 1713.75 34.8611 1713.75 35.6531V36.3131H1710.26ZM1710.64 34.3551C1710.38 34.5971 1710.26 35.0261 1710.26 35.6311V35.7521H1713V35.5541C1713 34.9821 1712.88 34.5751 1712.64 34.3331C1712.4 34.1021 1712.06 33.9811 1711.64 33.9811C1711.22 33.9811 1710.88 34.1131 1710.64 34.3551ZM1717.45 36.3131V36.6431C1717.45 37.2811 1717.57 37.7211 1717.83 37.9741C1718.08 38.2271 1718.44 38.3481 1718.9 38.3481C1719.29 38.3481 1719.6 38.2601 1719.82 38.0621C1720.04 37.8751 1720.16 37.6111 1720.16 37.2701V37.2371H1720.89V37.2921C1720.89 37.8201 1720.7 38.2381 1720.34 38.5461C1719.98 38.8651 1719.48 39.0191 1718.84 39.0191C1718.18 39.0191 1717.67 38.8321 1717.28 38.4361C1716.88 38.0511 1716.7 37.4461 1716.7 36.6211V35.6531C1716.7 34.8611 1716.88 34.2671 1717.28 33.8821C1717.67 33.4971 1718.18 33.2991 1718.82 33.2991C1719.46 33.2991 1719.96 33.4971 1720.35 33.8821C1720.73 34.2671 1720.93 34.8611 1720.93 35.6531V36.3131H1717.45ZM1717.82 34.3551C1717.57 34.5971 1717.45 35.0261 1717.45 35.6311V35.7521H1720.18V35.5541C1720.18 34.9821 1720.06 34.5751 1719.82 34.3331C1719.58 34.1021 1719.24 33.9811 1718.82 33.9811C1718.4 33.9811 1718.06 34.1131 1717.82 34.3551ZM1728.7 38.3481C1728.22 37.8861 1727.99 37.1491 1727.99 36.1371V34.1681C1727.99 33.1671 1728.22 32.4301 1728.71 31.9681C1729.18 31.5061 1729.82 31.2641 1730.63 31.2641C1731.42 31.2641 1732.06 31.5061 1732.53 31.9681C1733.01 32.4301 1733.25 33.1671 1733.25 34.1681V36.1371C1733.25 37.1491 1733.01 37.8861 1732.53 38.3481C1732.05 38.8101 1731.41 39.0411 1730.62 39.0411C1729.81 39.0411 1729.17 38.8101 1728.7 38.3481ZM1732.45 36.1811V34.2011C1732.45 32.7271 1731.84 31.9901 1730.63 31.9901C1730.02 31.9901 1729.56 32.1661 1729.26 32.5181C1728.95 32.8701 1728.79 33.4311 1728.79 34.2011V36.1811C1728.79 36.9291 1728.95 37.4681 1729.26 37.7981C1729.56 38.1391 1730.03 38.3041 1730.63 38.3041C1731.84 38.3041 1732.45 37.6001 1732.45 36.1811ZM1736.96 38.4801C1736.62 38.1171 1736.45 37.5891 1736.45 36.9071V33.3761H1737.2V36.8081C1737.2 37.3251 1737.3 37.7101 1737.5 37.9631C1737.7 38.2271 1738.03 38.3481 1738.5 38.3481C1738.96 38.3481 1739.3 38.2271 1739.5 37.9741C1739.7 37.7321 1739.8 37.3361 1739.8 36.8081V33.3761H1740.55V36.9071C1740.55 37.5891 1740.37 38.1171 1740.03 38.4801C1739.69 38.8431 1739.17 39.0191 1738.49 39.0191C1737.81 39.0191 1737.3 38.8431 1736.96 38.4801ZM1743.85 33.3761H1744.59V34.1241C1744.74 33.8491 1744.94 33.6401 1745.19 33.5081C1745.45 33.3761 1745.73 33.2991 1746.05 33.2991C1746.18 33.2991 1746.33 33.3101 1746.46 33.3321V34.0801C1746.28 34.0251 1746.08 33.9921 1745.89 33.9921C1745.5 33.9921 1745.19 34.1241 1744.95 34.3881C1744.71 34.6521 1744.6 35.0041 1744.6 35.4221V38.9531H1743.85V33.3761ZM1757.77 31.9571C1758.19 32.3531 1758.41 32.9031 1758.41 33.6291C1758.41 34.3111 1758.19 34.8501 1757.76 35.2351C1757.33 35.6311 1756.75 35.8181 1756.02 35.8181H1754.1V38.9531H1753.3V31.3631H1756.02C1756.76 31.3631 1757.34 31.5611 1757.77 31.9571ZM1757.18 34.7291C1757.47 34.4871 1757.61 34.1241 1757.61 33.6291C1757.61 33.1121 1757.47 32.7271 1757.18 32.4741C1756.89 32.2211 1756.49 32.0891 1755.96 32.0891H1754.1V35.0921H1755.96C1756.49 35.0921 1756.89 34.9711 1757.18 34.7291ZM1761.33 33.3761H1762.08V38.9531H1761.33V33.3761ZM1761.31 31.4731H1762.1V32.4631H1761.31V31.4731ZM1765.82 38.5791C1765.58 38.3371 1765.47 37.9741 1765.47 37.4901V31.3631H1766.22V37.4461C1766.22 37.7321 1766.27 37.9411 1766.38 38.0731C1766.49 38.2051 1766.67 38.2711 1766.92 38.2711H1767.37V38.9531H1766.84C1766.39 38.9531 1766.05 38.8321 1765.82 38.5791ZM1770.53 38.4801C1770.14 38.1171 1769.95 37.5341 1769.95 36.7311V35.5871C1769.95 34.7951 1770.14 34.2231 1770.53 33.8491C1770.92 33.4861 1771.44 33.2991 1772.1 33.2991C1772.73 33.2991 1773.24 33.4861 1773.62 33.8491C1774.01 34.2231 1774.21 34.7951 1774.21 35.5871V36.7311C1774.21 37.5231 1774.01 38.1061 1773.62 38.4691C1773.24 38.8431 1772.73 39.0191 1772.1 39.0191C1771.44 39.0191 1770.92 38.8431 1770.53 38.4801ZM1773.09 37.9851C1773.33 37.7431 1773.46 37.3031 1773.46 36.6871V35.6311C1773.46 35.0261 1773.33 34.5971 1773.09 34.3551C1772.84 34.1131 1772.51 33.9811 1772.1 33.9811C1771.66 33.9811 1771.31 34.1131 1771.07 34.3551C1770.82 34.5971 1770.7 35.0261 1770.7 35.6311V36.6871C1770.7 37.3031 1770.82 37.7431 1771.07 37.9851C1771.31 38.2271 1771.66 38.3481 1772.1 38.3481C1772.51 38.3481 1772.84 38.2271 1773.09 37.9851ZM1778.51 33.9701V37.5341C1778.51 38.0401 1778.74 38.2931 1779.22 38.2931H1779.66V38.9531H1779.1C1778.67 38.9531 1778.34 38.8321 1778.1 38.5901C1777.86 38.3481 1777.75 38.0071 1777.75 37.5671V33.9701H1776.88V33.3761H1777.75V32.1001L1778.51 31.7481V33.3761H1779.76V33.9701H1778.51ZM1782.96 38.5791C1782.59 38.2931 1782.41 37.8971 1782.41 37.3911V37.3471H1783.14V37.3801C1783.14 37.6881 1783.25 37.9411 1783.49 38.1171C1783.73 38.2931 1784.05 38.3811 1784.46 38.3811C1784.87 38.3811 1785.19 38.3041 1785.44 38.1281C1785.68 37.9631 1785.8 37.7211 1785.8 37.4021C1785.8 37.1271 1785.71 36.9181 1785.55 36.7861C1785.38 36.6541 1785.12 36.5551 1784.75 36.4891L1784.06 36.3681C1783.51 36.2801 1783.11 36.1151 1782.87 35.8841C1782.62 35.6641 1782.5 35.3341 1782.5 34.8941C1782.5 34.4101 1782.67 34.0251 1783.04 33.7391C1783.39 33.4531 1783.86 33.2991 1784.43 33.2991C1785.05 33.2991 1785.53 33.4421 1785.91 33.7281C1786.27 34.0141 1786.46 34.3771 1786.46 34.8281V34.8941H1785.73V34.8611C1785.73 34.5751 1785.61 34.3441 1785.39 34.1681C1785.16 34.0031 1784.85 33.9151 1784.46 33.9151C1784.06 33.9151 1783.76 34.0031 1783.54 34.1681C1783.32 34.3441 1783.22 34.5751 1783.22 34.8611C1783.22 35.1031 1783.3 35.3011 1783.46 35.4331C1783.61 35.5651 1783.85 35.6641 1784.19 35.7191L1784.92 35.8511C1785.47 35.9611 1785.86 36.1261 1786.13 36.3571C1786.39 36.5881 1786.52 36.9181 1786.52 37.3581C1786.52 37.8861 1786.33 38.3041 1785.95 38.5901C1785.57 38.8761 1785.06 39.0191 1784.42 39.0191C1783.81 39.0191 1783.32 38.8761 1782.96 38.5791Z" fill="white"/>
<path d="M159 34.7256H155.016V39.9418H159V34.7256Z" fill="white"/>
<path d="M155.016 43.6683V39.9424H147.844V43.6683H155.016Z" fill="white"/>
<path d="M155.016 34.7259H143.859V31H151.589C153.416 31 154.91 32.6477 155.016 34.7259Z" fill="white"/>
<path d="M111.984 31H108V48.8843H111.984V31Z" fill="white"/>
<path d="M127.125 31H123.141V52.6102H127.125V31Z" fill="white"/>
<path d="M129.516 31H133.5V52.6102H130.862C130.118 52.6102 129.516 52.0119 129.516 51.274V31Z" fill="white"/>
<path d="M139.875 31H135.891V52.6102H139.875V31Z" fill="white"/>
<path d="M139.875 48.8848V52.6106H124.459C123.731 52.6106 123.141 51.999 123.141 51.2447V48.8848H139.875Z" fill="white"/>
<path d="M120.75 52.6106V48.8848H111.984V52.6106H120.75Z" fill="white"/>
<path d="M159 48.8845H155.016V43.6682H159V48.8845Z" fill="white"/>
<path d="M155.016 48.8848H143.859V52.6106H151.589C153.416 52.6106 154.91 50.9629 155.016 48.8848Z" fill="white"/>
<path d="M174.637 39.1055C174.234 39.1055 173.873 39.0273 173.553 38.8711C173.236 38.7148 172.986 38.4941 172.803 38.209C172.623 37.9199 172.533 37.5801 172.533 37.1895V37.1777C172.533 36.7988 172.627 36.4727 172.814 36.1992C173.002 35.9219 173.277 35.7051 173.641 35.5488C174.004 35.3926 174.445 35.3008 174.965 35.2734L177.332 35.127V36.0879L175.17 36.2285C174.76 36.252 174.457 36.3379 174.262 36.4863C174.066 36.6348 173.969 36.8418 173.969 37.1074V37.1191C173.969 37.3926 174.072 37.6055 174.279 37.7578C174.49 37.9102 174.758 37.9863 175.082 37.9863C175.375 37.9863 175.637 37.9277 175.867 37.8105C176.098 37.6934 176.279 37.5352 176.412 37.3359C176.545 37.1328 176.611 36.9043 176.611 36.6504V34.623C176.611 34.3027 176.51 34.0586 176.307 33.8906C176.104 33.7188 175.803 33.6328 175.404 33.6328C175.072 33.6328 174.801 33.6914 174.59 33.8086C174.379 33.9219 174.236 34.084 174.162 34.2949L174.156 34.3184H172.779L172.785 34.2656C172.832 33.9062 172.973 33.5918 173.207 33.3223C173.441 33.0527 173.752 32.8438 174.139 32.6953C174.525 32.5469 174.971 32.4727 175.475 32.4727C176.029 32.4727 176.498 32.5586 176.881 32.7305C177.264 32.8984 177.555 33.1445 177.754 33.4688C177.953 33.7891 178.053 34.1738 178.053 34.623V39H176.611V38.1211H176.512C176.395 38.3242 176.242 38.5 176.055 38.6484C175.871 38.7969 175.66 38.9102 175.422 38.9883C175.184 39.0664 174.922 39.1055 174.637 39.1055ZM182.553 39.1289C181.908 39.1289 181.357 38.9961 180.9 38.7305C180.443 38.4648 180.094 38.082 179.852 37.582C179.609 37.082 179.488 36.4844 179.488 35.7891V35.7773C179.488 35.0859 179.609 34.4941 179.852 34.002C180.094 33.5098 180.443 33.1328 180.9 32.8711C181.357 32.6055 181.906 32.4727 182.547 32.4727C183.098 32.4727 183.57 32.5684 183.965 32.7598C184.363 32.9473 184.678 33.209 184.908 33.5449C185.143 33.877 185.287 34.2656 185.342 34.7109V34.7344H183.965L183.959 34.7168C183.893 34.4043 183.74 34.1484 183.502 33.9492C183.268 33.75 182.951 33.6504 182.553 33.6504C182.221 33.6504 181.936 33.7344 181.697 33.9023C181.463 34.0703 181.283 34.3125 181.158 34.6289C181.033 34.9453 180.971 35.3281 180.971 35.7773V35.7891C180.971 36.2422 181.033 36.6309 181.158 36.9551C181.287 37.2754 181.469 37.5215 181.703 37.6934C181.938 37.8613 182.221 37.9453 182.553 37.9453C182.932 37.9453 183.236 37.8594 183.467 37.6875C183.701 37.5156 183.863 37.2617 183.953 36.9258L183.965 36.9023L185.336 36.8965L185.33 36.9492C185.26 37.3828 185.107 37.7637 184.873 38.0918C184.643 38.4199 184.334 38.6758 183.947 38.8594C183.561 39.0391 183.096 39.1289 182.553 39.1289ZM189.479 39.1289C188.834 39.1289 188.283 38.9961 187.826 38.7305C187.369 38.4648 187.02 38.082 186.777 37.582C186.535 37.082 186.414 36.4844 186.414 35.7891V35.7773C186.414 35.0859 186.535 34.4941 186.777 34.002C187.02 33.5098 187.369 33.1328 187.826 32.8711C188.283 32.6055 188.832 32.4727 189.473 32.4727C190.023 32.4727 190.496 32.5684 190.891 32.7598C191.289 32.9473 191.604 33.209 191.834 33.5449C192.068 33.877 192.213 34.2656 192.268 34.7109V34.7344H190.891L190.885 34.7168C190.818 34.4043 190.666 34.1484 190.428 33.9492C190.193 33.75 189.877 33.6504 189.479 33.6504C189.146 33.6504 188.861 33.7344 188.623 33.9023C188.389 34.0703 188.209 34.3125 188.084 34.6289C187.959 34.9453 187.896 35.3281 187.896 35.7773V35.7891C187.896 36.2422 187.959 36.6309 188.084 36.9551C188.213 37.2754 188.395 37.5215 188.629 37.6934C188.863 37.8613 189.146 37.9453 189.479 37.9453C189.857 37.9453 190.162 37.8594 190.393 37.6875C190.627 37.5156 190.789 37.2617 190.879 36.9258L190.891 36.9023L192.262 36.8965L192.256 36.9492C192.186 37.3828 192.033 37.7637 191.799 38.0918C191.568 38.4199 191.26 38.6758 190.873 38.8594C190.486 39.0391 190.021 39.1289 189.479 39.1289ZM196.398 39.1289C195.762 39.1289 195.215 38.9941 194.758 38.7246C194.305 38.4551 193.955 38.0723 193.709 37.5762C193.463 37.0801 193.34 36.4922 193.34 35.8125V35.8066C193.34 35.1348 193.461 34.5488 193.703 34.0488C193.949 33.5488 194.297 33.1621 194.746 32.8887C195.195 32.6113 195.723 32.4727 196.328 32.4727C196.938 32.4727 197.461 32.6074 197.898 32.877C198.34 33.1426 198.68 33.5156 198.918 33.9961C199.156 34.4766 199.275 35.0391 199.275 35.6836V36.1641H194.072V35.1855H198.561L197.869 36.0996V35.5195C197.869 35.0938 197.805 34.7402 197.676 34.459C197.547 34.1777 197.367 33.9668 197.137 33.8262C196.91 33.6855 196.646 33.6152 196.346 33.6152C196.045 33.6152 195.777 33.6895 195.543 33.8379C195.312 33.9824 195.129 34.1973 194.992 34.4824C194.859 34.7637 194.793 35.1094 194.793 35.5195V36.1055C194.793 36.5 194.859 36.8379 194.992 37.1191C195.125 37.3965 195.312 37.6113 195.555 37.7637C195.801 37.9121 196.092 37.9863 196.428 37.9863C196.689 37.9863 196.914 37.9492 197.102 37.875C197.293 37.7969 197.447 37.7051 197.564 37.5996C197.682 37.4902 197.764 37.3867 197.811 37.2891L197.828 37.248H199.211L199.199 37.3008C199.148 37.5078 199.055 37.7188 198.918 37.9336C198.785 38.1445 198.604 38.3418 198.373 38.5254C198.146 38.7051 197.869 38.8516 197.541 38.9648C197.213 39.0742 196.832 39.1289 196.398 39.1289ZM200.793 39V30.1172H202.252V39H200.793ZM206.828 39.1289C206.191 39.1289 205.645 38.9941 205.188 38.7246C204.734 38.4551 204.385 38.0723 204.139 37.5762C203.893 37.0801 203.77 36.4922 203.77 35.8125V35.8066C203.77 35.1348 203.891 34.5488 204.133 34.0488C204.379 33.5488 204.727 33.1621 205.176 32.8887C205.625 32.6113 206.152 32.4727 206.758 32.4727C207.367 32.4727 207.891 32.6074 208.328 32.877C208.77 33.1426 209.109 33.5156 209.348 33.9961C209.586 34.4766 209.705 35.0391 209.705 35.6836V36.1641H204.502V35.1855H208.99L208.299 36.0996V35.5195C208.299 35.0938 208.234 34.7402 208.105 34.459C207.977 34.1777 207.797 33.9668 207.566 33.8262C207.34 33.6855 207.076 33.6152 206.775 33.6152C206.475 33.6152 206.207 33.6895 205.973 33.8379C205.742 33.9824 205.559 34.1973 205.422 34.4824C205.289 34.7637 205.223 35.1094 205.223 35.5195V36.1055C205.223 36.5 205.289 36.8379 205.422 37.1191C205.555 37.3965 205.742 37.6113 205.984 37.7637C206.23 37.9121 206.521 37.9863 206.857 37.9863C207.119 37.9863 207.344 37.9492 207.531 37.875C207.723 37.7969 207.877 37.7051 207.994 37.5996C208.111 37.4902 208.193 37.3867 208.24 37.2891L208.258 37.248H209.641L209.629 37.3008C209.578 37.5078 209.484 37.7188 209.348 37.9336C209.215 38.1445 209.033 38.3418 208.803 38.5254C208.576 38.7051 208.299 38.8516 207.971 38.9648C207.643 39.0742 207.262 39.1289 206.828 39.1289ZM211.164 39V32.5957H212.623V33.5801H212.723C212.832 33.2363 213.027 32.9688 213.309 32.7773C213.594 32.5859 213.947 32.4902 214.369 32.4902C214.479 32.4902 214.586 32.498 214.691 32.5137C214.801 32.5254 214.891 32.541 214.961 32.5605V33.8672C214.844 33.8398 214.725 33.8203 214.604 33.8086C214.486 33.793 214.363 33.7852 214.234 33.7852C213.91 33.7852 213.627 33.8457 213.385 33.9668C213.143 34.0879 212.955 34.2617 212.822 34.4883C212.689 34.7109 212.623 34.9746 212.623 35.2793V39H211.164ZM217.82 39.1055C217.418 39.1055 217.057 39.0273 216.736 38.8711C216.42 38.7148 216.17 38.4941 215.986 38.209C215.807 37.9199 215.717 37.5801 215.717 37.1895V37.1777C215.717 36.7988 215.811 36.4727 215.998 36.1992C216.186 35.9219 216.461 35.7051 216.824 35.5488C217.188 35.3926 217.629 35.3008 218.148 35.2734L220.516 35.127V36.0879L218.354 36.2285C217.943 36.252 217.641 36.3379 217.445 36.4863C217.25 36.6348 217.152 36.8418 217.152 37.1074V37.1191C217.152 37.3926 217.256 37.6055 217.463 37.7578C217.674 37.9102 217.941 37.9863 218.266 37.9863C218.559 37.9863 218.82 37.9277 219.051 37.8105C219.281 37.6934 219.463 37.5352 219.596 37.3359C219.729 37.1328 219.795 36.9043 219.795 36.6504V34.623C219.795 34.3027 219.693 34.0586 219.49 33.8906C219.287 33.7188 218.986 33.6328 218.588 33.6328C218.256 33.6328 217.984 33.6914 217.773 33.8086C217.562 33.9219 217.42 34.084 217.346 34.2949L217.34 34.3184H215.963L215.969 34.2656C216.016 33.9062 216.156 33.5918 216.391 33.3223C216.625 33.0527 216.936 32.8438 217.322 32.6953C217.709 32.5469 218.154 32.4727 218.658 32.4727C219.213 32.4727 219.682 32.5586 220.064 32.7305C220.447 32.8984 220.738 33.1445 220.938 33.4688C221.137 33.7891 221.236 34.1738 221.236 34.623V39H219.795V38.1211H219.695C219.578 38.3242 219.426 38.5 219.238 38.6484C219.055 38.7969 218.844 38.9102 218.605 38.9883C218.367 39.0664 218.105 39.1055 217.82 39.1055ZM225.508 39.0293C224.773 39.0293 224.244 38.8945 223.92 38.625C223.596 38.3555 223.434 37.9141 223.434 37.3008V33.7266H222.438V32.5957H223.434V31.0254H224.916V32.5957H226.264V33.7266H224.916V36.9551C224.916 37.2715 224.982 37.5039 225.115 37.6523C225.252 37.7969 225.471 37.8691 225.771 37.8691C225.877 37.8691 225.963 37.8672 226.029 37.8633C226.1 37.8555 226.178 37.8477 226.264 37.8398V38.9648C226.162 38.9844 226.045 39 225.912 39.0117C225.783 39.0234 225.648 39.0293 225.508 39.0293ZM227.74 39V32.5957H229.193V39H227.74ZM228.473 31.5234C228.234 31.5234 228.029 31.4395 227.857 31.2715C227.686 31.1035 227.6 30.9023 227.6 30.668C227.6 30.4258 227.686 30.2227 227.857 30.0586C228.029 29.8906 228.234 29.8066 228.473 29.8066C228.711 29.8066 228.914 29.8906 229.082 30.0586C229.254 30.2227 229.34 30.4258 229.34 30.668C229.34 30.9023 229.254 31.1035 229.082 31.2715C228.914 31.4395 228.711 31.5234 228.473 31.5234ZM230.992 39V32.5957H232.451V33.5801H232.551C232.703 33.2324 232.934 32.9609 233.242 32.7656C233.551 32.5703 233.936 32.4727 234.396 32.4727C235.111 32.4727 235.658 32.6797 236.037 33.0938C236.416 33.5078 236.605 34.0957 236.605 34.8574V39H235.146V35.1973C235.146 34.6973 235.041 34.3223 234.83 34.0723C234.623 33.8223 234.299 33.6973 233.857 33.6973C233.568 33.6973 233.318 33.7617 233.107 33.8906C232.896 34.0195 232.734 34.2012 232.621 34.4355C232.508 34.6699 232.451 34.9473 232.451 35.2676V39H230.992ZM241.082 41.25C240.52 41.25 240.033 41.1758 239.623 41.0273C239.217 40.8789 238.896 40.668 238.662 40.3945C238.428 40.125 238.285 39.8105 238.234 39.4512L238.24 39.4336H239.693L239.705 39.4512C239.752 39.6543 239.895 39.8203 240.133 39.9492C240.375 40.082 240.699 40.1484 241.105 40.1484C241.605 40.1484 241.992 40.0371 242.266 39.8145C242.543 39.5918 242.682 39.2754 242.682 38.8652V37.6348H242.582C242.461 37.8652 242.303 38.0605 242.107 38.2207C241.916 38.3809 241.695 38.502 241.445 38.584C241.199 38.6621 240.928 38.7012 240.631 38.7012C240.092 38.7012 239.625 38.5723 239.23 38.3145C238.836 38.0527 238.531 37.6914 238.316 37.2305C238.105 36.7695 238 36.2363 238 35.6309V35.6191C238 35.002 238.107 34.459 238.322 33.9902C238.537 33.5215 238.842 33.1543 239.236 32.8887C239.635 32.623 240.109 32.4902 240.66 32.4902C240.957 32.4902 241.229 32.5371 241.475 32.6309C241.725 32.7246 241.943 32.8574 242.131 33.0293C242.322 33.2012 242.479 33.4082 242.6 33.6504H242.676V32.5957H244.135V38.8418C244.135 39.334 244.01 39.7598 243.76 40.1191C243.514 40.4824 243.162 40.7617 242.705 40.957C242.248 41.1523 241.707 41.25 241.082 41.25ZM241.082 37.541C241.418 37.541 241.707 37.4609 241.949 37.3008C242.191 37.1367 242.377 36.9121 242.506 36.627C242.639 36.3418 242.705 36.0098 242.705 35.6309V35.6191C242.705 35.2402 242.639 34.9082 242.506 34.623C242.377 34.334 242.191 34.1094 241.949 33.9492C241.707 33.7852 241.418 33.7031 241.082 33.7031C240.742 33.7031 240.453 33.7852 240.215 33.9492C239.98 34.1094 239.801 34.334 239.676 34.623C239.555 34.9082 239.494 35.2402 239.494 35.6191V35.6309C239.494 36.0059 239.555 36.3379 239.676 36.627C239.801 36.9121 239.98 37.1367 240.215 37.3008C240.453 37.4609 240.742 37.541 241.082 37.541ZM175.311 52.1289C174.768 52.1289 174.299 52.0527 173.904 51.9004C173.514 51.7441 173.205 51.5293 172.979 51.2559C172.752 50.9785 172.617 50.6582 172.574 50.2949V50.2832H174.021L174.027 50.2949C174.105 50.5176 174.252 50.6992 174.467 50.8398C174.682 50.9805 174.971 51.0508 175.334 51.0508C175.576 51.0508 175.789 51.0176 175.973 50.9512C176.156 50.8809 176.301 50.7852 176.406 50.6641C176.512 50.543 176.564 50.4023 176.564 50.2422V50.2305C176.564 50.043 176.488 49.8867 176.336 49.7617C176.184 49.6328 175.932 49.5293 175.58 49.4512L174.543 49.2168C174.137 49.127 173.801 49.002 173.535 48.8418C173.27 48.6816 173.07 48.4844 172.938 48.25C172.809 48.0156 172.744 47.7422 172.744 47.4297V47.4238C172.744 47.0371 172.852 46.6973 173.066 46.4043C173.285 46.1113 173.588 45.8828 173.975 45.7188C174.361 45.5547 174.807 45.4727 175.311 45.4727C175.83 45.4727 176.277 45.5508 176.652 45.707C177.027 45.8633 177.32 46.0781 177.531 46.3516C177.742 46.625 177.863 46.9355 177.895 47.2832V47.2949H176.523L176.518 47.2773C176.463 47.0742 176.332 46.9023 176.125 46.7617C175.922 46.6172 175.648 46.5449 175.305 46.5449C175.09 46.5449 174.896 46.5781 174.725 46.6445C174.557 46.7109 174.424 46.8047 174.326 46.9258C174.232 47.043 174.186 47.1816 174.186 47.3418V47.3477C174.186 47.4727 174.217 47.582 174.279 47.6758C174.346 47.7695 174.449 47.8516 174.59 47.9219C174.73 47.9922 174.916 48.0547 175.146 48.1094L176.184 48.3379C176.812 48.4785 177.277 48.6875 177.578 48.9648C177.879 49.2422 178.029 49.6152 178.029 50.084V50.0957C178.029 50.502 177.912 50.8574 177.678 51.1621C177.443 51.4668 177.121 51.7051 176.711 51.877C176.301 52.0449 175.834 52.1289 175.311 52.1289ZM181.621 52.1289C181.145 52.1289 180.744 52.0371 180.42 51.8535C180.096 51.666 179.852 51.3945 179.688 51.0391C179.523 50.6797 179.441 50.2461 179.441 49.7383V45.5957H180.9V49.4043C180.9 49.9004 180.998 50.2734 181.193 50.5234C181.389 50.7734 181.707 50.8984 182.148 50.8984C182.383 50.8984 182.59 50.8633 182.77 50.793C182.953 50.7188 183.105 50.6133 183.227 50.4766C183.348 50.3398 183.439 50.1758 183.502 49.9844C183.564 49.7891 183.596 49.5703 183.596 49.3281V45.5957H185.055V52H183.596V51.0273H183.496C183.398 51.2539 183.262 51.4512 183.086 51.6191C182.91 51.7832 182.699 51.9102 182.453 52C182.207 52.0859 181.93 52.1289 181.621 52.1289ZM189.256 52.1289C188.713 52.1289 188.244 52.0527 187.85 51.9004C187.459 51.7441 187.15 51.5293 186.924 51.2559C186.697 50.9785 186.562 50.6582 186.52 50.2949V50.2832H187.967L187.973 50.2949C188.051 50.5176 188.197 50.6992 188.412 50.8398C188.627 50.9805 188.916 51.0508 189.279 51.0508C189.521 51.0508 189.734 51.0176 189.918 50.9512C190.102 50.8809 190.246 50.7852 190.352 50.6641C190.457 50.543 190.51 50.4023 190.51 50.2422V50.2305C190.51 50.043 190.434 49.8867 190.281 49.7617C190.129 49.6328 189.877 49.5293 189.525 49.4512L188.488 49.2168C188.082 49.127 187.746 49.002 187.48 48.8418C187.215 48.6816 187.016 48.4844 186.883 48.25C186.754 48.0156 186.689 47.7422 186.689 47.4297V47.4238C186.689 47.0371 186.797 46.6973 187.012 46.4043C187.23 46.1113 187.533 45.8828 187.92 45.7188C188.307 45.5547 188.752 45.4727 189.256 45.4727C189.775 45.4727 190.223 45.5508 190.598 45.707C190.973 45.8633 191.266 46.0781 191.477 46.3516C191.688 46.625 191.809 46.9355 191.84 47.2832V47.2949H190.469L190.463 47.2773C190.408 47.0742 190.277 46.9023 190.07 46.7617C189.867 46.6172 189.594 46.5449 189.25 46.5449C189.035 46.5449 188.842 46.5781 188.67 46.6445C188.502 46.7109 188.369 46.8047 188.271 46.9258C188.178 47.043 188.131 47.1816 188.131 47.3418V47.3477C188.131 47.4727 188.162 47.582 188.225 47.6758C188.291 47.7695 188.395 47.8516 188.535 47.9219C188.676 47.9922 188.861 48.0547 189.092 48.1094L190.129 48.3379C190.758 48.4785 191.223 48.6875 191.523 48.9648C191.824 49.2422 191.975 49.6152 191.975 50.084V50.0957C191.975 50.502 191.857 50.8574 191.623 51.1621C191.389 51.4668 191.066 51.7051 190.656 51.877C190.246 52.0449 189.779 52.1289 189.256 52.1289ZM195.93 52.0293C195.195 52.0293 194.666 51.8945 194.342 51.625C194.018 51.3555 193.855 50.9141 193.855 50.3008V46.7266H192.859V45.5957H193.855V44.0254H195.338V45.5957H196.686V46.7266H195.338V49.9551C195.338 50.2715 195.404 50.5039 195.537 50.6523C195.674 50.7969 195.893 50.8691 196.193 50.8691C196.299 50.8691 196.385 50.8672 196.451 50.8633C196.521 50.8555 196.6 50.8477 196.686 50.8398V51.9648C196.584 51.9844 196.467 52 196.334 52.0117C196.205 52.0234 196.07 52.0293 195.93 52.0293ZM199.891 52.1055C199.488 52.1055 199.127 52.0273 198.807 51.8711C198.49 51.7148 198.24 51.4941 198.057 51.209C197.877 50.9199 197.787 50.5801 197.787 50.1895V50.1777C197.787 49.7988 197.881 49.4727 198.068 49.1992C198.256 48.9219 198.531 48.7051 198.895 48.5488C199.258 48.3926 199.699 48.3008 200.219 48.2734L202.586 48.127V49.0879L200.424 49.2285C200.014 49.252 199.711 49.3379 199.516 49.4863C199.32 49.6348 199.223 49.8418 199.223 50.1074V50.1191C199.223 50.3926 199.326 50.6055 199.533 50.7578C199.744 50.9102 200.012 50.9863 200.336 50.9863C200.629 50.9863 200.891 50.9277 201.121 50.8105C201.352 50.6934 201.533 50.5352 201.666 50.3359C201.799 50.1328 201.865 49.9043 201.865 49.6504V47.623C201.865 47.3027 201.764 47.0586 201.561 46.8906C201.357 46.7188 201.057 46.6328 200.658 46.6328C200.326 46.6328 200.055 46.6914 199.844 46.8086C199.633 46.9219 199.49 47.084 199.416 47.2949L199.41 47.3184H198.033L198.039 47.2656C198.086 46.9062 198.227 46.5918 198.461 46.3223C198.695 46.0527 199.006 45.8438 199.393 45.6953C199.779 45.5469 200.225 45.4727 200.729 45.4727C201.283 45.4727 201.752 45.5586 202.135 45.7305C202.518 45.8984 202.809 46.1445 203.008 46.4688C203.207 46.7891 203.307 47.1738 203.307 47.623V52H201.865V51.1211H201.766C201.648 51.3242 201.496 51.5 201.309 51.6484C201.125 51.7969 200.914 51.9102 200.676 51.9883C200.438 52.0664 200.176 52.1055 199.891 52.1055ZM205.076 52V45.5957H206.529V52H205.076ZM205.809 44.5234C205.57 44.5234 205.365 44.4395 205.193 44.2715C205.021 44.1035 204.936 43.9023 204.936 43.668C204.936 43.4258 205.021 43.2227 205.193 43.0586C205.365 42.8906 205.57 42.8066 205.809 42.8066C206.047 42.8066 206.25 42.8906 206.418 43.0586C206.59 43.2227 206.676 43.4258 206.676 43.668C206.676 43.9023 206.59 44.1035 206.418 44.2715C206.25 44.4395 206.047 44.5234 205.809 44.5234ZM208.328 52V45.5957H209.787V46.5801H209.887C210.039 46.2324 210.27 45.9609 210.578 45.7656C210.887 45.5703 211.271 45.4727 211.732 45.4727C212.447 45.4727 212.994 45.6797 213.373 46.0938C213.752 46.5078 213.941 47.0957 213.941 47.8574V52H212.482V48.1973C212.482 47.6973 212.377 47.3223 212.166 47.0723C211.959 46.8223 211.635 46.6973 211.193 46.6973C210.904 46.6973 210.654 46.7617 210.443 46.8906C210.232 47.0195 210.07 47.2012 209.957 47.4355C209.844 47.6699 209.787 47.9473 209.787 48.2676V52H208.328ZM217.41 52.1055C217.008 52.1055 216.646 52.0273 216.326 51.8711C216.01 51.7148 215.76 51.4941 215.576 51.209C215.396 50.9199 215.307 50.5801 215.307 50.1895V50.1777C215.307 49.7988 215.4 49.4727 215.588 49.1992C215.775 48.9219 216.051 48.7051 216.414 48.5488C216.777 48.3926 217.219 48.3008 217.738 48.2734L220.105 48.127V49.0879L217.943 49.2285C217.533 49.252 217.23 49.3379 217.035 49.4863C216.84 49.6348 216.742 49.8418 216.742 50.1074V50.1191C216.742 50.3926 216.846 50.6055 217.053 50.7578C217.264 50.9102 217.531 50.9863 217.855 50.9863C218.148 50.9863 218.41 50.9277 218.641 50.8105C218.871 50.6934 219.053 50.5352 219.186 50.3359C219.318 50.1328 219.385 49.9043 219.385 49.6504V47.623C219.385 47.3027 219.283 47.0586 219.08 46.8906C218.877 46.7188 218.576 46.6328 218.178 46.6328C217.846 46.6328 217.574 46.6914 217.363 46.8086C217.152 46.9219 217.01 47.084 216.936 47.2949L216.93 47.3184H215.553L215.559 47.2656C215.605 46.9062 215.746 46.5918 215.98 46.3223C216.215 46.0527 216.525 45.8438 216.912 45.6953C217.299 45.5469 217.744 45.4727 218.248 45.4727C218.803 45.4727 219.271 45.5586 219.654 45.7305C220.037 45.8984 220.328 46.1445 220.527 46.4688C220.727 46.7891 220.826 47.1738 220.826 47.623V52H219.385V51.1211H219.285C219.168 51.3242 219.016 51.5 218.828 51.6484C218.645 51.7969 218.434 51.9102 218.195 51.9883C217.957 52.0664 217.695 52.1055 217.41 52.1055ZM226.141 52.1055C225.84 52.1055 225.564 52.0625 225.314 51.9766C225.064 51.8867 224.844 51.7598 224.652 51.5957C224.465 51.4277 224.312 51.2285 224.195 50.998H224.096V52H222.637V43.1172H224.096V46.6152H224.195C224.309 46.3848 224.461 46.1855 224.652 46.0176C224.844 45.8496 225.066 45.7207 225.32 45.6309C225.574 45.5371 225.848 45.4902 226.141 45.4902C226.68 45.4902 227.145 45.625 227.535 45.8945C227.93 46.1602 228.234 46.541 228.449 47.0371C228.664 47.5293 228.771 48.1152 228.771 48.7949V48.8066C228.771 49.4785 228.662 50.0625 228.443 50.5586C228.229 51.0547 227.924 51.4375 227.529 51.707C227.139 51.9727 226.676 52.1055 226.141 52.1055ZM225.684 50.875C226.016 50.875 226.301 50.793 226.539 50.6289C226.777 50.4609 226.961 50.2227 227.09 49.9141C227.219 49.6055 227.283 49.2363 227.283 48.8066V48.7949C227.283 48.3652 227.219 47.9961 227.09 47.6875C226.961 47.375 226.777 47.1367 226.539 46.9727C226.301 46.8047 226.016 46.7207 225.684 46.7207C225.355 46.7207 225.07 46.8047 224.828 46.9727C224.586 47.1406 224.398 47.3789 224.266 47.6875C224.137 47.9961 224.072 48.3652 224.072 48.7949V48.8066C224.072 49.2324 224.137 49.6016 224.266 49.9141C224.398 50.2227 224.584 50.4609 224.822 50.6289C225.064 50.793 225.352 50.875 225.684 50.875ZM230.289 52V43.1172H231.748V52H230.289ZM236.324 52.1289C235.688 52.1289 235.141 51.9941 234.684 51.7246C234.23 51.4551 233.881 51.0723 233.635 50.5762C233.389 50.0801 233.266 49.4922 233.266 48.8125V48.8066C233.266 48.1348 233.387 47.5488 233.629 47.0488C233.875 46.5488 234.223 46.1621 234.672 45.8887C235.121 45.6113 235.648 45.4727 236.254 45.4727C236.863 45.4727 237.387 45.6074 237.824 45.877C238.266 46.1426 238.605 46.5156 238.844 46.9961C239.082 47.4766 239.201 48.0391 239.201 48.6836V49.1641H233.998V48.1855H238.486L237.795 49.0996V48.5195C237.795 48.0938 237.73 47.7402 237.602 47.459C237.473 47.1777 237.293 46.9668 237.062 46.8262C236.836 46.6855 236.572 46.6152 236.271 46.6152C235.971 46.6152 235.703 46.6895 235.469 46.8379C235.238 46.9824 235.055 47.1973 234.918 47.4824C234.785 47.7637 234.719 48.1094 234.719 48.5195V49.1055C234.719 49.5 234.785 49.8379 234.918 50.1191C235.051 50.3965 235.238 50.6113 235.48 50.7637C235.727 50.9121 236.018 50.9863 236.354 50.9863C236.615 50.9863 236.84 50.9492 237.027 50.875C237.219 50.7969 237.373 50.7051 237.49 50.5996C237.607 50.4902 237.689 50.3867 237.736 50.2891L237.754 50.248H239.137L239.125 50.3008C239.074 50.5078 238.98 50.7188 238.844 50.9336C238.711 51.1445 238.529 51.3418 238.299 51.5254C238.072 51.7051 237.795 51.8516 237.467 51.9648C237.139 52.0742 236.758 52.1289 236.324 52.1289ZM246.379 52.0293C245.645 52.0293 245.115 51.8945 244.791 51.625C244.467 51.3555 244.305 50.9141 244.305 50.3008V46.7266H243.309V45.5957H244.305V44.0254H245.787V45.5957H247.135V46.7266H245.787V49.9551C245.787 50.2715 245.854 50.5039 245.986 50.6523C246.123 50.7969 246.342 50.8691 246.643 50.8691C246.748 50.8691 246.834 50.8672 246.9 50.8633C246.971 50.8555 247.049 50.8477 247.135 50.8398V51.9648C247.033 51.9844 246.916 52 246.783 52.0117C246.654 52.0234 246.52 52.0293 246.379 52.0293ZM248.594 52V45.5957H250.053V46.5801H250.152C250.262 46.2363 250.457 45.9688 250.738 45.7773C251.023 45.5859 251.377 45.4902 251.799 45.4902C251.908 45.4902 252.016 45.498 252.121 45.5137C252.23 45.5254 252.32 45.541 252.391 45.5605V46.8672C252.273 46.8398 252.154 46.8203 252.033 46.8086C251.916 46.793 251.793 46.7852 251.664 46.7852C251.34 46.7852 251.057 46.8457 250.814 46.9668C250.572 47.0879 250.385 47.2617 250.252 47.4883C250.119 47.7109 250.053 47.9746 250.053 48.2793V52H248.594ZM255.25 52.1055C254.848 52.1055 254.486 52.0273 254.166 51.8711C253.85 51.7148 253.6 51.4941 253.416 51.209C253.236 50.9199 253.146 50.5801 253.146 50.1895V50.1777C253.146 49.7988 253.24 49.4727 253.428 49.1992C253.615 48.9219 253.891 48.7051 254.254 48.5488C254.617 48.3926 255.059 48.3008 255.578 48.2734L257.945 48.127V49.0879L255.783 49.2285C255.373 49.252 255.07 49.3379 254.875 49.4863C254.68 49.6348 254.582 49.8418 254.582 50.1074V50.1191C254.582 50.3926 254.686 50.6055 254.893 50.7578C255.104 50.9102 255.371 50.9863 255.695 50.9863C255.988 50.9863 256.25 50.9277 256.48 50.8105C256.711 50.6934 256.893 50.5352 257.025 50.3359C257.158 50.1328 257.225 49.9043 257.225 49.6504V47.623C257.225 47.3027 257.123 47.0586 256.92 46.8906C256.717 46.7188 256.416 46.6328 256.018 46.6328C255.686 46.6328 255.414 46.6914 255.203 46.8086C254.992 46.9219 254.85 47.084 254.775 47.2949L254.77 47.3184H253.393L253.398 47.2656C253.445 46.9062 253.586 46.5918 253.82 46.3223C254.055 46.0527 254.365 45.8438 254.752 45.6953C255.139 45.5469 255.584 45.4727 256.088 45.4727C256.643 45.4727 257.111 45.5586 257.494 45.7305C257.877 45.8984 258.168 46.1445 258.367 46.4688C258.566 46.7891 258.666 47.1738 258.666 47.623V52H257.225V51.1211H257.125C257.008 51.3242 256.855 51.5 256.668 51.6484C256.484 51.7969 256.273 51.9102 256.035 51.9883C255.797 52.0664 255.535 52.1055 255.25 52.1055ZM263.166 52.1289C262.521 52.1289 261.971 51.9961 261.514 51.7305C261.057 51.4648 260.707 51.082 260.465 50.582C260.223 50.082 260.102 49.4844 260.102 48.7891V48.7773C260.102 48.0859 260.223 47.4941 260.465 47.002C260.707 46.5098 261.057 46.1328 261.514 45.8711C261.971 45.6055 262.52 45.4727 263.16 45.4727C263.711 45.4727 264.184 45.5684 264.578 45.7598C264.977 45.9473 265.291 46.209 265.521 46.5449C265.756 46.877 265.9 47.2656 265.955 47.7109V47.7344H264.578L264.572 47.7168C264.506 47.4043 264.354 47.1484 264.115 46.9492C263.881 46.75 263.564 46.6504 263.166 46.6504C262.834 46.6504 262.549 46.7344 262.311 46.9023C262.076 47.0703 261.896 47.3125 261.771 47.6289C261.646 47.9453 261.584 48.3281 261.584 48.7773V48.7891C261.584 49.2422 261.646 49.6309 261.771 49.9551C261.9 50.2754 262.082 50.5215 262.316 50.6934C262.551 50.8613 262.834 50.9453 263.166 50.9453C263.545 50.9453 263.85 50.8594 264.08 50.6875C264.314 50.5156 264.477 50.2617 264.566 49.9258L264.578 49.9023L265.949 49.8965L265.943 49.9492C265.873 50.3828 265.721 50.7637 265.486 51.0918C265.256 51.4199 264.947 51.6758 264.561 51.8594C264.174 52.0391 263.709 52.1289 263.166 52.1289ZM270.086 52.1289C269.449 52.1289 268.902 51.9941 268.445 51.7246C267.992 51.4551 267.643 51.0723 267.396 50.5762C267.15 50.0801 267.027 49.4922 267.027 48.8125V48.8066C267.027 48.1348 267.148 47.5488 267.391 47.0488C267.637 46.5488 267.984 46.1621 268.434 45.8887C268.883 45.6113 269.41 45.4727 270.016 45.4727C270.625 45.4727 271.148 45.6074 271.586 45.877C272.027 46.1426 272.367 46.5156 272.605 46.9961C272.844 47.4766 272.963 48.0391 272.963 48.6836V49.1641H267.76V48.1855H272.248L271.557 49.0996V48.5195C271.557 48.0938 271.492 47.7402 271.363 47.459C271.234 47.1777 271.055 46.9668 270.824 46.8262C270.598 46.6855 270.334 46.6152 270.033 46.6152C269.732 46.6152 269.465 46.6895 269.23 46.8379C269 46.9824 268.816 47.1973 268.68 47.4824C268.547 47.7637 268.48 48.1094 268.48 48.5195V49.1055C268.48 49.5 268.547 49.8379 268.68 50.1191C268.812 50.3965 269 50.6113 269.242 50.7637C269.488 50.9121 269.779 50.9863 270.115 50.9863C270.377 50.9863 270.602 50.9492 270.789 50.875C270.98 50.7969 271.135 50.7051 271.252 50.5996C271.369 50.4902 271.451 50.3867 271.498 50.2891L271.516 50.248H272.898L272.887 50.3008C272.836 50.5078 272.742 50.7188 272.605 50.9336C272.473 51.1445 272.291 51.3418 272.061 51.5254C271.834 51.7051 271.557 51.8516 271.229 51.9648C270.9 52.0742 270.52 52.1289 270.086 52.1289ZM276.168 52.1055C275.766 52.1055 275.404 52.0273 275.084 51.8711C274.768 51.7148 274.518 51.4941 274.334 51.209C274.154 50.9199 274.064 50.5801 274.064 50.1895V50.1777C274.064 49.7988 274.158 49.4727 274.346 49.1992C274.533 48.9219 274.809 48.7051 275.172 48.5488C275.535 48.3926 275.977 48.3008 276.496 48.2734L278.863 48.127V49.0879L276.701 49.2285C276.291 49.252 275.988 49.3379 275.793 49.4863C275.598 49.6348 275.5 49.8418 275.5 50.1074V50.1191C275.5 50.3926 275.604 50.6055 275.811 50.7578C276.021 50.9102 276.289 50.9863 276.613 50.9863C276.906 50.9863 277.168 50.9277 277.398 50.8105C277.629 50.6934 277.811 50.5352 277.943 50.3359C278.076 50.1328 278.143 49.9043 278.143 49.6504V47.623C278.143 47.3027 278.041 47.0586 277.838 46.8906C277.635 46.7188 277.334 46.6328 276.936 46.6328C276.604 46.6328 276.332 46.6914 276.121 46.8086C275.91 46.9219 275.768 47.084 275.693 47.2949L275.688 47.3184H274.311L274.316 47.2656C274.363 46.9062 274.504 46.5918 274.738 46.3223C274.973 46.0527 275.283 45.8438 275.67 45.6953C276.057 45.5469 276.502 45.4727 277.006 45.4727C277.561 45.4727 278.029 45.5586 278.412 45.7305C278.795 45.8984 279.086 46.1445 279.285 46.4688C279.484 46.7891 279.584 47.1738 279.584 47.623V52H278.143V51.1211H278.043C277.926 51.3242 277.773 51.5 277.586 51.6484C277.402 51.7969 277.191 51.9102 276.953 51.9883C276.715 52.0664 276.453 52.1055 276.168 52.1055ZM284.898 52.1055C284.598 52.1055 284.322 52.0625 284.072 51.9766C283.822 51.8867 283.602 51.7598 283.41 51.5957C283.223 51.4277 283.07 51.2285 282.953 50.998H282.854V52H281.395V43.1172H282.854V46.6152H282.953C283.066 46.3848 283.219 46.1855 283.41 46.0176C283.602 45.8496 283.824 45.7207 284.078 45.6309C284.332 45.5371 284.605 45.4902 284.898 45.4902C285.438 45.4902 285.902 45.625 286.293 45.8945C286.688 46.1602 286.992 46.541 287.207 47.0371C287.422 47.5293 287.529 48.1152 287.529 48.7949V48.8066C287.529 49.4785 287.42 50.0625 287.201 50.5586C286.986 51.0547 286.682 51.4375 286.287 51.707C285.896 51.9727 285.434 52.1055 284.898 52.1055ZM284.441 50.875C284.773 50.875 285.059 50.793 285.297 50.6289C285.535 50.4609 285.719 50.2227 285.848 49.9141C285.977 49.6055 286.041 49.2363 286.041 48.8066V48.7949C286.041 48.3652 285.977 47.9961 285.848 47.6875C285.719 47.375 285.535 47.1367 285.297 46.9727C285.059 46.8047 284.773 46.7207 284.441 46.7207C284.113 46.7207 283.828 46.8047 283.586 46.9727C283.344 47.1406 283.156 47.3789 283.023 47.6875C282.895 47.9961 282.83 48.3652 282.83 48.7949V48.8066C282.83 49.2324 282.895 49.6016 283.023 49.9141C283.156 50.2227 283.342 50.4609 283.58 50.6289C283.822 50.793 284.109 50.875 284.441 50.875ZM289.006 52V45.5957H290.459V52H289.006ZM289.738 44.5234C289.5 44.5234 289.295 44.4395 289.123 44.2715C288.951 44.1035 288.865 43.9023 288.865 43.668C288.865 43.4258 288.951 43.2227 289.123 43.0586C289.295 42.8906 289.5 42.8066 289.738 42.8066C289.977 42.8066 290.18 42.8906 290.348 43.0586C290.52 43.2227 290.605 43.4258 290.605 43.668C290.605 43.9023 290.52 44.1035 290.348 44.2715C290.18 44.4395 289.977 44.5234 289.738 44.5234ZM292.316 52V43.1172H293.775V52H292.316ZM295.627 52V45.5957H297.08V52H295.627ZM296.359 44.5234C296.121 44.5234 295.916 44.4395 295.744 44.2715C295.572 44.1035 295.486 43.9023 295.486 43.668C295.486 43.4258 295.572 43.2227 295.744 43.0586C295.916 42.8906 296.121 42.8066 296.359 42.8066C296.598 42.8066 296.801 42.8906 296.969 43.0586C297.141 43.2227 297.227 43.4258 297.227 43.668C297.227 43.9023 297.141 44.1035 296.969 44.2715C296.801 44.4395 296.598 44.5234 296.359 44.5234ZM301.398 52.0293C300.664 52.0293 300.135 51.8945 299.811 51.625C299.486 51.3555 299.324 50.9141 299.324 50.3008V46.7266H298.328V45.5957H299.324V44.0254H300.807V45.5957H302.154V46.7266H300.807V49.9551C300.807 50.2715 300.873 50.5039 301.006 50.6523C301.143 50.7969 301.361 50.8691 301.662 50.8691C301.768 50.8691 301.854 50.8672 301.92 50.8633C301.99 50.8555 302.068 50.8477 302.154 50.8398V51.9648C302.053 51.9844 301.936 52 301.803 52.0117C301.674 52.0234 301.539 52.0293 301.398 52.0293ZM304.299 54.25C304.209 54.25 304.115 54.248 304.018 54.2441C303.924 54.2402 303.832 54.2344 303.742 54.2266V53.1074C303.801 53.1152 303.869 53.1191 303.947 53.1191C304.025 53.123 304.102 53.125 304.176 53.125C304.477 53.125 304.717 53.0586 304.896 52.9258C305.08 52.7969 305.211 52.5879 305.289 52.2988L305.365 52.0059L303.074 45.5957H304.668L306.355 51.2676L305.957 50.5996H306.461L306.074 51.2676L307.762 45.5957H309.297L307 52.1406C306.816 52.6719 306.605 53.0918 306.367 53.4004C306.129 53.709 305.842 53.9277 305.506 54.0566C305.174 54.1855 304.771 54.25 304.299 54.25Z" fill="white"/>
<path d="M169.93 26.6348L162.301 58.1523H161L168.629 26.6348H169.93Z" fill="white"/>
</svg>
